<svg width="139" height="48" viewBox="0 0 139 48" fill="none" xmlns="http://www.w3.org/2000/svg">
<g clip-path="url(#clip0_367_58424)">
<g clip-path="url(#clip1_367_58424)">
<path d="M86.6877 12.5929H88.9338V13.9392C90.7558 11.9445 93.8344 12.0836 95.4387 14.2758C98.6765 18.7052 93.4731 25.2594 89.156 20.6708V25.8316H86.6877V12.5929ZM91.1216 14.6528C88.0565 15.0544 88.5748 20.4755 91.945 19.9886C94.7521 19.5825 94.2225 14.2467 91.1216 14.6528Z" fill="white"/>
<path d="M78.6098 18.2026H71.6539C71.6495 19.881 73.2628 20.6102 74.8088 20.1211C76.1259 19.7037 75.3832 18.6065 77.8537 19.5242C78.0152 19.5848 78.3316 19.504 78.1611 19.881C77.6831 20.9446 75.7691 22.0261 74.627 22.1809C67.3592 23.1682 66.5739 11.9378 74.47 12.5841C77.3712 12.8219 79.0092 15.4247 78.6121 18.2026H78.6098ZM75.9172 16.4075C75.5739 13.5713 72.0646 13.7912 71.4296 16.4075H75.9172Z" fill="white"/>
<path d="M127.078 18.2027H119.898C120.057 19.9664 121.677 20.6261 123.275 20.1212C123.964 19.9036 124.132 19.1227 124.312 19.0846C124.628 19.0173 125.725 19.3852 126.093 19.5288C126.293 19.6074 126.52 19.4189 126.394 19.8699C126.136 20.7944 124.63 21.6897 123.762 21.9522C119.584 23.2244 115.821 19.5109 117.612 15.3531C119.824 10.2147 127.976 12.5528 127.078 18.2005V18.2027ZM124.386 16.4077C124.049 13.668 120.111 13.7173 119.898 16.4077H124.386Z" fill="white"/>
<path d="M44.056 18.2027C44.2153 19.9664 45.8354 20.6261 47.433 20.1212C48.1218 19.9036 48.2901 19.1227 48.4696 19.0846C48.786 19.0173 49.8832 19.3852 50.2512 19.5289C50.4509 19.6074 50.6776 19.4189 50.5519 19.8699C50.2939 20.7944 48.7883 21.6897 47.9199 21.9522C43.4906 23.3007 39.7187 19.098 41.9962 14.9088C43.6678 11.8325 48.3305 11.6665 50.341 14.4982C50.7539 15.0793 51.7411 18.2027 50.8997 18.2027H44.056ZM48.5437 16.4077C48.142 13.733 44.2894 13.6298 44.056 16.4077H48.5437Z" fill="white"/>
<path d="M61.1075 22.0174H58.6393V16.0712C58.6393 14.6486 56.7096 14.4714 55.7133 15.3891C54.2212 16.7623 55.6326 20.7855 54.9504 21.8065C54.7777 22.0668 52.3566 22.1475 52.3566 22.0174V12.5933C53.9115 12.6561 55.2937 12.0436 54.6026 14.164C55.8637 12.6382 58.9871 11.6374 60.4007 13.4123C60.6071 13.6703 61.1075 14.698 61.1075 14.9493V22.0174Z" fill="white"/>
<path d="M111.175 14.6392C110.201 16.1 113.98 16.6093 114.891 17.0379C115.972 17.5473 116.592 18.3124 116.441 19.551C116.073 22.5869 112.274 22.5645 110.026 21.6782C108.099 20.9175 108.289 20.8704 109.129 19.1C109.972 19.3042 110.614 20.0671 111.494 20.2084C112.2 20.3206 114.48 20.3992 113.903 19.1628C113.327 17.9265 108.837 18.3483 108.662 15.8419C108.422 12.3954 113.356 11.619 115.618 13.3894C116.56 14.1254 115.535 14.4867 115.057 15.2832C114.437 14.6572 111.651 13.9257 111.175 14.6415V14.6392Z" fill="white"/>
<path d="M63.3517 14.6113H62.2275V12.5919H63.3517L63.4796 9.67266H66.0443L66.0421 12.5941H67.8394V14.6136H66.0421V19.4356C66.0421 20.1222 67.8955 19.4984 68.0705 19.6375C68.2455 19.7766 68.5372 20.9681 68.517 21.2329C68.4564 22.0339 65.9927 22.3279 65.3083 22.191C64.624 22.0541 63.3495 21.0624 63.3495 20.3331V14.6113H63.3517Z" fill="white"/>
<path d="M79.9558 12.5929H82.2019L82.3141 14.3902C82.9536 13.1673 84.154 12.4156 85.5676 12.5929L85.5564 14.8277C84.8631 14.6191 82.424 15.6916 82.424 16.2952V22.017H79.9558V12.5929Z" fill="white"/>
<path d="M97.9085 12.5928H100.155V14.1634C101.171 13.2906 102.012 12.3482 103.518 12.5928L103.507 14.8276C102.751 14.7715 100.374 15.4424 100.374 16.2951V22.0169H97.9062V12.5928H97.9085Z" fill="white"/>
<path d="M49.4376 38.844C48.4481 38.8956 48.0936 38.4513 48.0891 37.5L46.745 38.5074C44.8512 39.7012 41.2611 38.6555 41.3733 36.0594C41.499 33.12 45.9978 32.8014 48.0913 33.6832C48.3112 31.1454 46.947 29.9382 44.4429 30.3735C43.6687 30.5082 43.0966 31.1297 42.5917 31.2217C42.1676 31.3002 42.042 30.663 42.1317 30.5396C42.4683 30.0706 44.4182 29.4558 45.0532 29.4132C50.8154 29.016 48.6994 35.2471 49.4376 38.8463V38.844ZM44.2185 34.1836C41.5393 34.7311 42.1429 38.2786 44.9948 38.1215C46.7585 38.025 48.4907 36.8986 48.0981 34.9151C47.8984 33.9098 45.0711 34.0085 44.2185 34.1836Z" fill="white"/>
<path d="M68.9597 38.8435C67.9701 38.8952 67.6156 38.4509 67.6111 37.4995L66.267 38.507C63.7068 40.0956 59.5221 37.7418 61.3643 34.7261C62.4705 32.9176 65.7375 33.0185 67.4989 33.6872C67.9073 31.2908 66.5834 30.0141 64.1556 30.3394C63.3299 30.4494 62.3807 31.2616 61.9185 31.2257C61.7614 31.2145 61.5685 30.658 61.6537 30.5391C61.9948 30.0679 63.9379 29.4553 64.5752 29.4127C70.2701 29.02 68.2439 35.2758 68.9597 38.8458V38.8435ZM63.7405 34.1831C63.0853 34.3177 62.1833 34.9527 62.0442 35.6438C61.3149 39.2968 68.3718 38.7022 67.6178 34.9146C67.4181 33.9094 64.5909 34.0081 63.7382 34.1831H63.7405Z" fill="white"/>
<path d="M78.8367 37.4969C79.3101 37.1872 79.5412 36.375 79.7701 35.8521C80.6833 33.7676 81.3879 31.5395 82.4201 29.5268C83.975 28.9591 83.1112 30.3031 82.7544 31.2074C81.3318 34.8088 79.6803 38.3383 78.2084 41.9195C77.6901 42.8417 75.6818 43.2029 76.153 41.7736C77.2705 42.1932 78.4081 39.283 78.3408 38.5604L74.349 29.4213C74.7574 29.4348 75.2892 29.2889 75.5854 29.6434L78.8389 37.4991L78.8367 37.4969Z" fill="white"/>
<path d="M51.6843 29.4213H52.5819L52.6941 31.443C53.623 29.4908 57.2962 28.425 58.6021 30.4691C58.8242 30.8169 59.3134 32.1228 59.3134 32.4504V38.8454H58.1914V32.4504C58.1914 32.17 57.6843 31.0121 57.4128 30.7608C56.4211 29.8543 54.5901 30.5207 53.7262 31.3487C53.522 31.5462 52.5819 32.989 52.5819 33.1214V38.8431H51.6843V29.419V29.4213Z" fill="white"/>
<path d="M107.108 12.5932H104.639V22.0173H107.108V12.5932Z" fill="white"/>
<path d="M104.69 32.9583C105.11 33.3779 108.004 33.7997 108.902 34.2418C111.944 35.7429 109.748 39.0593 106.77 39.0682C105.96 39.0682 102.765 38.2851 103.068 37.1655C103.294 36.3263 104.028 37.2934 104.338 37.4617C105.819 38.2739 109.357 38.5993 109.326 36.259C109.294 33.9635 103.173 35.173 103.281 32.0091C103.359 29.6621 106.178 29.0832 108.067 29.4691C108.935 29.6464 111.047 31.2821 109.46 31.2238C109.137 31.2126 108.574 30.5058 107.84 30.3711C106.346 30.0952 104.246 30.25 104.428 32.2066C104.448 32.422 104.544 32.8124 104.692 32.9583H104.69Z" fill="white"/>
<path d="M101.722 31.6602C100.303 32.394 100.485 30.8188 99.0357 30.4239C93.5136 28.9138 92.9415 38.8764 98.8629 37.8936C100.29 37.6558 100.835 36.3768 100.968 36.3566C101.762 36.2444 102.15 36.5742 101.609 37.2743C98.5735 41.219 92.8472 38.0776 93.655 32.9101C94.2361 29.1943 100.371 27.8166 101.719 31.6602H101.722Z" fill="white"/>
<path d="M85.3427 30.3184H84.1108C83.4983 29.1359 85.2036 29.5375 85.3449 29.4208C85.5873 29.2189 84.8244 26.2772 85.9059 26.2772C86.8954 26.2772 86.3232 28.7567 86.4646 29.4231H88.4863V30.3184H86.4669V37.3864C86.4669 37.5525 87.2051 37.9227 87.4721 37.925C87.9859 37.9317 89.1572 37.0028 89.1639 38.0618C89.1707 38.8584 87.1647 38.9549 86.5835 38.8405C86.2582 38.7776 85.3449 37.9631 85.3449 37.8352V30.3184H85.3427Z" fill="white"/>
<path d="M72.327 25.8316V37.3874C72.327 37.5355 72.8812 37.9259 73.1258 37.9573C73.9964 38.0695 74.4025 37.1114 74.5731 38.6215C73.79 38.8504 72.3831 39.0927 71.7189 38.5564C71.6853 38.5295 71.2051 37.8833 71.2051 37.8384V25.8339H72.327V25.8316Z" fill="white"/>
<path d="M91.6235 29.4219V38.846H90.5016V29.7585C90.5016 29.4623 91.3296 29.3479 91.6235 29.4219Z" fill="white"/>
<path d="M107.107 8.99995C107.174 9.06726 107.145 10.6267 107.118 10.9207C106.992 12.2198 105.695 11.1742 104.636 11.4704V8.99995H107.107Z" fill="white"/>
<path d="M91.6248 25.8279H90.5006V27.6252H91.6248V25.8279Z" fill="white"/>
</g>
<g clip-path="url(#clip2_367_58424)">
<path d="M18.8515 15.652C16.001 18.5025 14.3995 22.3687 14.3995 26.4C14.3995 30.4313 16.001 34.2975 18.8515 37.148L22.8 33.1996C20.9966 31.3962 19.9835 28.9503 19.9835 26.4C19.9835 23.8497 20.9966 21.4038 22.8 19.6004L18.8515 15.652Z" fill="#AAD590"/>
<path d="M29.6001 6.40001C26.9737 6.40001 24.3729 6.91732 21.9464 7.92241C19.5199 8.92751 17.3151 10.4007 15.458 12.2579C13.6008 14.115 12.1276 16.3198 11.1225 18.7463C10.1174 21.1728 9.6001 23.7736 9.6001 26.4C9.6001 29.0264 10.1174 31.6272 11.1225 34.0537C12.1276 36.4802 13.6008 38.685 15.458 40.5421C17.3151 42.3993 19.5199 43.8725 21.9464 44.8776C24.3729 45.8827 26.9737 46.4 29.6001 46.4V41.0434C27.6771 41.0434 25.7729 40.6647 23.9963 39.9288C22.2197 39.1929 20.6054 38.1142 19.2456 36.7545C17.8859 35.3947 16.8072 33.7804 16.0713 32.0038C15.3354 30.2272 14.9567 28.323 14.9567 26.4C14.9567 24.477 15.3354 22.5728 16.0713 20.7962C16.8072 19.0196 17.8859 17.4053 19.2456 16.0455C20.6054 14.6858 22.2197 13.6072 23.9963 12.8713C25.7729 12.1354 27.6771 11.7566 29.6001 11.7566V6.40001Z" fill="#6AC5BC"/>
<path d="M23.1805 2.44504C18.4426 3.71454 14.1876 6.36046 10.9536 10.0482C7.71949 13.736 5.65159 18.2999 5.01136 23.1629C4.37113 28.026 5.18733 32.9696 7.35675 37.3688C9.52616 41.7679 12.9514 45.4249 17.1992 47.8774L19.7954 43.3806C16.437 41.4416 13.7289 38.5502 12.0138 35.0722C10.2986 31.5941 9.65325 27.6855 10.1594 23.8407C10.6656 19.9959 12.3005 16.3875 14.8575 13.4719C17.4144 10.5562 20.7785 8.4643 24.5244 7.4606L23.1805 2.44504Z" fill="#18A2AF"/>
<path d="M8.66952 5.46964C3.11844 11.0207 -0.00012232 18.5496 -0.00012207 26.4C-0.000121821 34.2504 3.11844 41.7793 8.66952 47.3304L12.2201 43.7798C7.61069 39.1704 5.02115 32.9187 5.02115 26.4C5.02115 19.8813 7.61069 13.6296 12.2201 9.02022L8.66952 5.46964Z" fill="#0C757B"/>
</g>
</g>
<defs>
<clipPath id="clip0_367_58424">
<rect width="138.4" height="48" fill="white"/>
</clipPath>
<clipPath id="clip1_367_58424">
<rect width="85.8355" height="33.7316" fill="white" transform="translate(41.3113 9)"/>
</clipPath>
<clipPath id="clip2_367_58424">
<rect width="29.5999" height="48" fill="white"/>
</clipPath>
</defs>
</svg>
