<svg width="335" height="280" viewBox="0 0 335 280" fill="none" xmlns="http://www.w3.org/2000/svg">
<rect width="335" height="280" rx="12" fill="white"/>
<g filter="url(#filter0_d_876_605)">
<rect x="16" y="16" width="174" height="40" rx="20" fill="url(#paint0_linear_876_605)" shape-rendering="crispEdges"/>
<rect x="16.25" y="16.25" width="173.5" height="39.5" rx="19.75" stroke="black" stroke-opacity="0.12" stroke-width="0.5" shape-rendering="crispEdges"/>
<g filter="url(#filter1_d_876_605)">
<path d="M55.2233 31.2727V40H53.9066V31.2727H55.2233ZM57.0089 40V31.2727H62.4209V32.4062H58.3257V35.0653H62.0331V36.1946H58.3257V40H57.0089ZM68.6681 33.5653C68.6227 33.1619 68.4352 32.8494 68.1056 32.6278C67.7761 32.4034 67.3613 32.2912 66.8613 32.2912C66.5034 32.2912 66.1937 32.348 65.9323 32.4616C65.671 32.5724 65.4679 32.7259 65.323 32.9219C65.1809 33.1151 65.1099 33.3352 65.1099 33.5824C65.1099 33.7898 65.1582 33.9687 65.2548 34.1193C65.3542 34.2699 65.4835 34.3963 65.6426 34.4986C65.8045 34.598 65.9778 34.6818 66.1625 34.75C66.3471 34.8153 66.5247 34.8693 66.6951 34.9119L67.5474 35.1335C67.8258 35.2017 68.1113 35.294 68.4039 35.4105C68.6965 35.527 68.9679 35.6804 69.2179 35.8707C69.4679 36.0611 69.6696 36.2969 69.823 36.5781C69.9792 36.8594 70.0573 37.196 70.0573 37.5881C70.0573 38.0824 69.9295 38.5213 69.6738 38.9048C69.421 39.2884 69.0531 39.5909 68.5701 39.8125C68.09 40.0341 67.509 40.1449 66.8272 40.1449C66.1738 40.1449 65.6085 40.0412 65.1312 39.8338C64.6539 39.6264 64.2804 39.3324 64.0105 38.9517C63.7406 38.5682 63.5914 38.1136 63.563 37.5881H64.884C64.9096 37.9034 65.0119 38.1662 65.1909 38.3764C65.3727 38.5838 65.6042 38.7386 65.8855 38.8409C66.1696 38.9403 66.4806 38.9901 66.8187 38.9901C67.1909 38.9901 67.5218 38.9318 67.8116 38.8153C68.1042 38.696 68.3343 38.5312 68.5019 38.321C68.6696 38.108 68.7534 37.8594 68.7534 37.5753C68.7534 37.3168 68.6795 37.1051 68.5318 36.9403C68.3869 36.7756 68.1894 36.6392 67.9394 36.5312C67.6923 36.4233 67.4125 36.3281 67.1 36.2457L66.0687 35.9645C65.3698 35.7741 64.8159 35.4943 64.4068 35.125C64.0005 34.7557 63.7974 34.267 63.7974 33.6591C63.7974 33.1562 63.9338 32.7173 64.2065 32.3423C64.4792 31.9673 64.8485 31.6761 65.3144 31.4688C65.7804 31.2585 66.3059 31.1534 66.8912 31.1534C67.4821 31.1534 68.0034 31.2571 68.4551 31.4645C68.9096 31.6719 69.2676 31.9574 69.5289 32.321C69.7903 32.6818 69.9267 33.0966 69.938 33.5653H68.6681ZM72.2361 40.081C72.0031 40.081 71.8028 39.9986 71.6352 39.8338C71.4676 39.6662 71.3838 39.4645 71.3838 39.2287C71.3838 38.9957 71.4676 38.7969 71.6352 38.6321C71.8028 38.4645 72.0031 38.3807 72.2361 38.3807C72.469 38.3807 72.6693 38.4645 72.8369 38.6321C73.0045 38.7969 73.0883 38.9957 73.0883 39.2287C73.0883 39.3849 73.0486 39.5284 72.969 39.6591C72.8923 39.7869 72.79 39.8892 72.6622 39.9659C72.5344 40.0426 72.3923 40.081 72.2361 40.081ZM75.5025 40H74.1048L77.2454 31.2727H78.7667L81.9073 40H80.5096L78.0423 32.858H77.9741L75.5025 40ZM75.7369 36.5824H80.271V37.6903H75.7369V36.5824ZM84.3524 31.2727V40H83.0356V31.2727H84.3524ZM90.4986 31.2727V40H89.1818V31.2727H90.4986ZM93.456 36.1136V40H92.1819V33.4545H93.4049V34.5199H93.4859C93.6364 34.1733 93.8722 33.8949 94.1933 33.6847C94.5171 33.4744 94.9248 33.3693 95.4163 33.3693C95.8623 33.3693 96.2529 33.4631 96.5881 33.6506C96.9234 33.8352 97.1833 34.1108 97.368 34.4773C97.5526 34.8437 97.645 35.2969 97.645 35.8366V40H96.3708V35.9901C96.3708 35.5156 96.2472 35.1449 96.0001 34.8778C95.7529 34.608 95.4134 34.473 94.9816 34.473C94.6862 34.473 94.4234 34.5369 94.1933 34.6648C93.966 34.7926 93.7856 34.9801 93.6521 35.2273C93.5214 35.4716 93.456 35.767 93.456 36.1136ZM102.277 33.4545V34.4773H98.7019V33.4545H102.277ZM99.6607 31.8864H100.935V38.0781C100.935 38.3253 100.972 38.5114 101.046 38.6364C101.119 38.7585 101.215 38.8423 101.331 38.8878C101.45 38.9304 101.58 38.9517 101.719 38.9517C101.821 38.9517 101.911 38.9446 101.987 38.9304C102.064 38.9162 102.124 38.9048 102.166 38.8963L102.396 39.9489C102.323 39.9773 102.218 40.0057 102.081 40.0341C101.945 40.0653 101.774 40.0824 101.57 40.0852C101.235 40.0909 100.922 40.0312 100.632 39.9062C100.343 39.7812 100.108 39.5881 99.9292 39.3267C99.7502 39.0653 99.6607 38.7372 99.6607 38.3423V31.8864ZM106.305 40.1321C105.66 40.1321 105.105 39.9943 104.639 39.7188C104.176 39.4403 103.818 39.0497 103.565 38.5469C103.315 38.0412 103.19 37.4489 103.19 36.7699C103.19 36.0994 103.315 35.5085 103.565 34.9972C103.818 34.4858 104.17 34.0866 104.622 33.7997C105.077 33.5128 105.608 33.3693 106.216 33.3693C106.585 33.3693 106.943 33.4304 107.29 33.5526C107.636 33.6747 107.947 33.8665 108.223 34.1278C108.499 34.3892 108.716 34.7287 108.875 35.1463C109.034 35.5611 109.114 36.0653 109.114 36.6591V37.1108H103.91V36.1562H107.865C107.865 35.821 107.797 35.5241 107.66 35.2656C107.524 35.0043 107.332 34.7983 107.085 34.6477C106.841 34.4972 106.554 34.4219 106.224 34.4219C105.866 34.4219 105.554 34.5099 105.287 34.6861C105.023 34.8594 104.818 35.0866 104.673 35.3679C104.531 35.6463 104.46 35.9489 104.46 36.2756V37.0213C104.46 37.4588 104.537 37.831 104.69 38.1378C104.847 38.4446 105.064 38.679 105.342 38.8409C105.621 39 105.946 39.0795 106.318 39.0795C106.56 39.0795 106.78 39.0455 106.979 38.9773C107.177 38.9062 107.349 38.8011 107.494 38.6619C107.639 38.5227 107.75 38.3509 107.827 38.1463L109.033 38.3636C108.936 38.7187 108.763 39.0298 108.513 39.2969C108.266 39.5611 107.954 39.767 107.579 39.9148C107.207 40.0597 106.783 40.1321 106.305 40.1321ZM111.669 31.2727V40H110.395V31.2727H111.669ZM114.526 31.2727V40H113.252V31.2727H114.526ZM116.108 40V33.4545H117.382V40H116.108ZM116.751 32.4446C116.53 32.4446 116.339 32.3707 116.18 32.223C116.024 32.0724 115.946 31.8935 115.946 31.6861C115.946 31.4759 116.024 31.2969 116.18 31.1491C116.339 30.9986 116.53 30.9233 116.751 30.9233C116.973 30.9233 117.162 30.9986 117.318 31.1491C117.477 31.2969 117.557 31.4759 117.557 31.6861C117.557 31.8935 117.477 32.0724 117.318 32.223C117.162 32.3707 116.973 32.4446 116.751 32.4446ZM121.708 42.5909C121.189 42.5909 120.741 42.5227 120.366 42.3864C119.994 42.25 119.69 42.0696 119.454 41.8452C119.218 41.6207 119.042 41.375 118.926 41.108L120.021 40.6562C120.098 40.7812 120.2 40.9134 120.328 41.0526C120.458 41.1946 120.635 41.3153 120.856 41.4148C121.081 41.5142 121.369 41.5639 121.721 41.5639C122.204 41.5639 122.603 41.446 122.919 41.2102C123.234 40.9773 123.392 40.6051 123.392 40.0938V38.8068H123.311C123.234 38.946 123.123 39.1009 122.978 39.2713C122.836 39.4418 122.64 39.5895 122.39 39.7145C122.14 39.8395 121.815 39.902 121.414 39.902C120.897 39.902 120.431 39.7812 120.017 39.5398C119.605 39.2955 119.278 38.9361 119.037 38.4616C118.798 37.9844 118.679 37.3977 118.679 36.7017C118.679 36.0057 118.796 35.4091 119.032 34.9119C119.271 34.4148 119.598 34.0341 120.012 33.7699C120.427 33.5028 120.897 33.3693 121.423 33.3693C121.829 33.3693 122.157 33.4375 122.407 33.5739C122.657 33.7074 122.852 33.8636 122.991 34.0426C123.133 34.2216 123.243 34.3793 123.319 34.5156H123.413V33.4545H124.662V40.1449C124.662 40.7074 124.531 41.169 124.27 41.5298C124.008 41.8906 123.654 42.1577 123.208 42.331C122.765 42.5043 122.265 42.5909 121.708 42.5909ZM121.696 38.8452C122.062 38.8452 122.372 38.7599 122.625 38.5895C122.88 38.4162 123.073 38.169 123.204 37.848C123.338 37.5241 123.404 37.1364 123.404 36.6847C123.404 36.2443 123.339 35.8565 123.208 35.5213C123.078 35.1861 122.886 34.9247 122.633 34.7372C122.38 34.5469 122.068 34.4517 121.696 34.4517C121.312 34.4517 120.993 34.5511 120.737 34.75C120.481 34.946 120.288 35.2131 120.157 35.5511C120.029 35.8892 119.966 36.267 119.966 36.6847C119.966 37.1136 120.031 37.4901 120.162 37.8139C120.292 38.1378 120.485 38.3906 120.741 38.5724C121 38.7543 121.318 38.8452 121.696 38.8452ZM129.059 40.1321C128.414 40.1321 127.859 39.9943 127.393 39.7188C126.93 39.4403 126.572 39.0497 126.319 38.5469C126.069 38.0412 125.944 37.4489 125.944 36.7699C125.944 36.0994 126.069 35.5085 126.319 34.9972C126.572 34.4858 126.924 34.0866 127.376 33.7997C127.831 33.5128 128.362 33.3693 128.97 33.3693C129.339 33.3693 129.697 33.4304 130.044 33.5526C130.39 33.6747 130.701 33.8665 130.977 34.1278C131.253 34.3892 131.47 34.7287 131.629 35.1463C131.788 35.5611 131.868 36.0653 131.868 36.6591V37.1108H126.664V36.1562H130.619C130.619 35.821 130.551 35.5241 130.414 35.2656C130.278 35.0043 130.086 34.7983 129.839 34.6477C129.595 34.4972 129.308 34.4219 128.978 34.4219C128.62 34.4219 128.308 34.5099 128.041 34.6861C127.777 34.8594 127.572 35.0866 127.427 35.3679C127.285 35.6463 127.214 35.9489 127.214 36.2756V37.0213C127.214 37.4588 127.291 37.831 127.444 38.1378C127.601 38.4446 127.818 38.679 128.096 38.8409C128.375 39 128.7 39.0795 129.072 39.0795C129.314 39.0795 129.534 39.0455 129.733 38.9773C129.932 38.9062 130.103 38.8011 130.248 38.6619C130.393 38.5227 130.504 38.3509 130.581 38.1463L131.787 38.3636C131.69 38.7187 131.517 39.0298 131.267 39.2969C131.02 39.5611 130.709 39.767 130.334 39.9148C129.961 40.0597 129.537 40.1321 129.059 40.1321ZM134.423 36.1136V40H133.149V33.4545H134.372V34.5199H134.453C134.604 34.1733 134.84 33.8949 135.161 33.6847C135.485 33.4744 135.892 33.3693 136.384 33.3693C136.83 33.3693 137.22 33.4631 137.556 33.6506C137.891 33.8352 138.151 34.1108 138.335 34.4773C138.52 34.8437 138.612 35.2969 138.612 35.8366V40H137.338V35.9901C137.338 35.5156 137.215 35.1449 136.968 34.8778C136.72 34.608 136.381 34.473 135.949 34.473C135.654 34.473 135.391 34.5369 135.161 34.6648C134.933 34.7926 134.753 34.9801 134.62 35.2273C134.489 35.4716 134.423 35.767 134.423 36.1136ZM142.946 40.1321C142.313 40.1321 141.767 39.9886 141.31 39.7017C140.855 39.4119 140.506 39.0128 140.262 38.5043C140.017 37.9957 139.895 37.4134 139.895 36.7571C139.895 36.0923 140.02 35.5057 140.27 34.9972C140.52 34.4858 140.872 34.0866 141.327 33.7997C141.782 33.5128 142.317 33.3693 142.934 33.3693C143.431 33.3693 143.874 33.4616 144.263 33.6463C144.652 33.8281 144.966 34.0838 145.205 34.4134C145.446 34.7429 145.59 35.1278 145.635 35.5682H144.395C144.327 35.2614 144.171 34.9972 143.926 34.7756C143.685 34.554 143.361 34.4432 142.955 34.4432C142.6 34.4432 142.289 34.5369 142.022 34.7244C141.757 34.9091 141.551 35.1733 141.404 35.517C141.256 35.858 141.182 36.2614 141.182 36.7273C141.182 37.2045 141.255 37.6165 141.399 37.9631C141.544 38.3097 141.749 38.5781 142.013 38.7685C142.28 38.9588 142.594 39.054 142.955 39.054C143.196 39.054 143.415 39.0099 143.611 38.9219C143.81 38.831 143.976 38.7017 144.11 38.5341C144.246 38.3665 144.341 38.1648 144.395 37.929H145.635C145.59 38.3523 145.452 38.7301 145.222 39.0625C144.992 39.3949 144.684 39.6562 144.297 39.8466C143.914 40.0369 143.463 40.1321 142.946 40.1321ZM149.687 40.1321C149.042 40.1321 148.487 39.9943 148.021 39.7188C147.558 39.4403 147.2 39.0497 146.947 38.5469C146.697 38.0412 146.572 37.4489 146.572 36.7699C146.572 36.0994 146.697 35.5085 146.947 34.9972C147.2 34.4858 147.552 34.0866 148.004 33.7997C148.458 33.5128 148.989 33.3693 149.597 33.3693C149.967 33.3693 150.325 33.4304 150.671 33.5526C151.018 33.6747 151.329 33.8665 151.604 34.1278C151.88 34.3892 152.097 34.7287 152.256 35.1463C152.416 35.5611 152.495 36.0653 152.495 36.6591V37.1108H147.292V36.1562H151.246C151.246 35.821 151.178 35.5241 151.042 35.2656C150.906 35.0043 150.714 34.7983 150.467 34.6477C150.222 34.4972 149.935 34.4219 149.606 34.4219C149.248 34.4219 148.935 34.5099 148.668 34.6861C148.404 34.8594 148.2 35.0866 148.055 35.3679C147.913 35.6463 147.842 35.9489 147.842 36.2756V37.0213C147.842 37.4588 147.918 37.831 148.072 38.1378C148.228 38.4446 148.445 38.679 148.724 38.8409C149.002 39 149.327 39.0795 149.7 39.0795C149.941 39.0795 150.161 39.0455 150.36 38.9773C150.559 38.9062 150.731 38.8011 150.876 38.6619C151.021 38.5227 151.131 38.3509 151.208 38.1463L152.414 38.3636C152.318 38.7187 152.144 39.0298 151.894 39.2969C151.647 39.5611 151.336 39.767 150.961 39.9148C150.589 40.0597 150.164 40.1321 149.687 40.1321Z" fill="white"/>
</g>
</g>
<g filter="url(#filter2_d_876_605)">
<path d="M199 36C199 24.9543 207.954 16 219 16C230.046 16 239 24.9543 239 36C239 47.0457 230.046 56 219 56C207.954 56 199 47.0457 199 36Z" fill="url(#paint1_linear_876_605)"/>
<path d="M219 16.2275C229.92 16.2275 238.772 25.0798 238.772 36C238.772 46.9202 229.92 55.7725 219 55.7725C208.08 55.7725 199.228 46.9202 199.228 36C199.228 25.0798 208.08 16.2275 219 16.2275Z" stroke="black" stroke-opacity="0.12" stroke-width="0.454544"/>
<g filter="url(#filter3_d_876_605)">
<path d="M214.453 31.4552C214.453 31.0534 214.613 30.668 214.897 30.3838C215.181 30.0997 215.566 29.9401 215.968 29.9401H222.029C222.431 29.9401 222.816 30.0997 223.1 30.3838C223.384 30.668 223.544 31.0534 223.544 31.4552V34.4855C223.544 34.8874 223.384 35.2728 223.1 35.5569C222.816 35.8411 222.431 36.0007 222.029 36.0007H215.968C215.566 36.0007 215.181 35.8411 214.897 35.5569C214.613 35.2728 214.453 34.8874 214.453 34.4855V31.4552Z" stroke="white" stroke-width="1.51516" stroke-linecap="round" stroke-linejoin="round"/>
<path d="M219 28.4235V29.9386" stroke="white" stroke-width="1.51516" stroke-linecap="round" stroke-linejoin="round"/>
<path d="M216.727 35.9999V42.8181" stroke="white" stroke-width="1.51516" stroke-linecap="round" stroke-linejoin="round"/>
<path d="M221.271 35.9999V42.8181" stroke="white" stroke-width="1.51516" stroke-linecap="round" stroke-linejoin="round"/>
<path d="M213.697 39.0294L216.728 37.5143" stroke="white" stroke-width="1.51516" stroke-linecap="round" stroke-linejoin="round"/>
<path d="M221.271 37.5143L224.302 39.0294" stroke="white" stroke-width="1.51516" stroke-linecap="round" stroke-linejoin="round"/>
<path d="M216.727 40.5453H221.272" stroke="white" stroke-width="1.51516" stroke-linecap="round" stroke-linejoin="round"/>
<path d="M217.484 32.9689V32.9775" stroke="white" stroke-width="1.51516" stroke-linecap="round" stroke-linejoin="round"/>
<path d="M220.514 32.9689V32.9775" stroke="white" stroke-width="1.51516" stroke-linecap="round" stroke-linejoin="round"/>
</g>
</g>
<g filter="url(#filter4_d_876_605)">
<path d="M86 88C86 76.9543 94.9543 68 106 68C117.046 68 126 76.9543 126 88C126 99.0457 117.046 108 106 108C94.9543 108 86 99.0457 86 88Z" fill="url(#paint2_linear_876_605)"/>
<path d="M106 68.2275C116.92 68.2275 125.772 77.0798 125.772 88C125.772 98.9202 116.92 107.772 106 107.772C95.0798 107.772 86.2275 98.9202 86.2275 88C86.2275 77.0798 95.0798 68.2275 106 68.2275Z" stroke="black" stroke-opacity="0.12" stroke-width="0.454545"/>
<g filter="url(#filter5_d_876_605)">
<path d="M99.9375 84.9691V83.454C99.9375 83.0522 100.097 82.6668 100.381 82.3826C100.665 82.0985 101.051 81.9388 101.453 81.9388H102.968" stroke="white" stroke-width="1.51515" stroke-linecap="round" stroke-linejoin="round"/>
<path d="M99.9375 91.0297V92.5448C99.9375 92.9467 100.097 93.332 100.381 93.6162C100.665 93.9003 101.051 94.06 101.453 94.06H102.968" stroke="white" stroke-width="1.51515" stroke-linecap="round" stroke-linejoin="round"/>
<path d="M109.029 81.9388H110.544C110.946 81.9388 111.332 82.0985 111.616 82.3826C111.9 82.6668 112.06 83.0522 112.06 83.454V84.9691" stroke="white" stroke-width="1.51515" stroke-linecap="round" stroke-linejoin="round"/>
<path d="M109.029 94.06H110.544C110.946 94.06 111.332 93.9003 111.616 93.6162C111.9 93.332 112.06 92.9467 112.06 92.5448V91.0297" stroke="white" stroke-width="1.51515" stroke-linecap="round" stroke-linejoin="round"/>
<path d="M102.969 86.4855C102.969 86.0836 103.128 85.6983 103.413 85.4141C103.697 85.13 104.082 84.9703 104.484 84.9703H107.514C107.916 84.9703 108.301 85.13 108.586 85.4141C108.87 85.6983 109.029 86.0836 109.029 86.4855V89.5158C109.029 89.9176 108.87 90.303 108.586 90.5872C108.301 90.8713 107.916 91.0309 107.514 91.0309H104.484C104.082 91.0309 103.697 90.8713 103.413 90.5872C103.128 90.303 102.969 89.9176 102.969 89.5158V86.4855Z" stroke="white" stroke-width="1.51515" stroke-linecap="round" stroke-linejoin="round"/>
</g>
</g>
<g filter="url(#filter6_d_876_605)">
<rect x="135" y="68" width="184" height="40" rx="20" fill="url(#paint3_linear_876_605)" shape-rendering="crispEdges"/>
<rect x="135.25" y="68.25" width="183.5" height="39.5" rx="19.75" stroke="black" stroke-opacity="0.12" stroke-width="0.5" shape-rendering="crispEdges"/>
<g filter="url(#filter7_d_876_605)">
<path d="M175.248 92H173.85L176.991 83.2727H178.512L181.653 92H180.255L177.788 84.858H177.72L175.248 92ZM175.482 88.5824H180.017V89.6903H175.482V88.5824ZM183.953 88.1136V92H182.679V85.4545H183.902V86.5199H183.983C184.134 86.1733 184.369 85.8949 184.69 85.6847C185.014 85.4744 185.422 85.3693 185.913 85.3693C186.359 85.3693 186.75 85.4631 187.085 85.6506C187.42 85.8352 187.68 86.1108 187.865 86.4773C188.05 86.8437 188.142 87.2969 188.142 87.8366V92H186.868V87.9901C186.868 87.5156 186.744 87.1449 186.497 86.8778C186.25 86.608 185.911 86.473 185.479 86.473C185.183 86.473 184.92 86.5369 184.69 86.6648C184.463 86.7926 184.283 86.9801 184.149 87.2273C184.018 87.4716 183.953 87.767 183.953 88.1136ZM192.476 92.1321C191.862 92.1321 191.327 91.9915 190.869 91.7102C190.412 91.429 190.057 91.0355 189.804 90.5298C189.551 90.0241 189.425 89.4332 189.425 88.7571C189.425 88.0781 189.551 87.4844 189.804 86.9759C190.057 86.4673 190.412 86.0724 190.869 85.7912C191.327 85.5099 191.862 85.3693 192.476 85.3693C193.09 85.3693 193.625 85.5099 194.082 85.7912C194.54 86.0724 194.895 86.4673 195.148 86.9759C195.401 87.4844 195.527 88.0781 195.527 88.7571C195.527 89.4332 195.401 90.0241 195.148 90.5298C194.895 91.0355 194.54 91.429 194.082 91.7102C193.625 91.9915 193.09 92.1321 192.476 92.1321ZM192.48 91.0625C192.878 91.0625 193.207 90.9574 193.469 90.7472C193.73 90.5369 193.923 90.2571 194.048 89.9077C194.176 89.5582 194.24 89.1733 194.24 88.7528C194.24 88.3352 194.176 87.9517 194.048 87.6023C193.923 87.25 193.73 86.9673 193.469 86.7543C193.207 86.5412 192.878 86.4347 192.48 86.4347C192.08 86.4347 191.747 86.5412 191.483 86.7543C191.222 86.9673 191.027 87.25 190.899 87.6023C190.774 87.9517 190.712 88.3352 190.712 88.7528C190.712 89.1733 190.774 89.5582 190.899 89.9077C191.027 90.2571 191.222 90.5369 191.483 90.7472C191.747 90.9574 192.08 91.0625 192.48 91.0625ZM196.817 92V85.4545H198.04V86.5199H198.121C198.258 86.1591 198.481 85.8778 198.79 85.6761C199.1 85.4716 199.471 85.3693 199.903 85.3693C200.34 85.3693 200.707 85.4716 201.002 85.6761C201.3 85.8807 201.52 86.1619 201.662 86.5199H201.731C201.887 86.1705 202.135 85.892 202.476 85.6847C202.817 85.4744 203.224 85.3693 203.695 85.3693C204.289 85.3693 204.773 85.5554 205.148 85.9276C205.526 86.2997 205.715 86.8608 205.715 87.6108V92H204.441V87.7301C204.441 87.2869 204.32 86.9659 204.079 86.767C203.837 86.5682 203.549 86.4688 203.214 86.4688C202.799 86.4688 202.476 86.5966 202.246 86.8523C202.016 87.1051 201.901 87.4304 201.901 87.8281V92H200.631V87.6491C200.631 87.294 200.52 87.0085 200.299 86.7926C200.077 86.5767 199.789 86.4688 199.434 86.4688C199.192 86.4688 198.969 86.5327 198.765 86.6605C198.563 86.7855 198.4 86.9602 198.275 87.1847C198.153 87.4091 198.091 87.669 198.091 87.9645V92H196.817ZM209.196 92.1449C208.781 92.1449 208.406 92.0682 208.071 91.9148C207.735 91.7585 207.47 91.5327 207.274 91.2372C207.081 90.9418 206.984 90.5795 206.984 90.1506C206.984 89.7812 207.055 89.4773 207.197 89.2386C207.339 89 207.531 88.8111 207.772 88.6719C208.014 88.5327 208.284 88.4276 208.582 88.3565C208.88 88.2855 209.184 88.2315 209.494 88.1946C209.886 88.1491 210.204 88.1122 210.448 88.0838C210.693 88.0526 210.87 88.0028 210.981 87.9347C211.092 87.8665 211.147 87.7557 211.147 87.6023V87.5724C211.147 87.2003 211.042 86.9119 210.832 86.7074C210.625 86.5028 210.315 86.4006 209.903 86.4006C209.474 86.4006 209.136 86.4957 208.889 86.6861C208.644 86.8736 208.475 87.0824 208.382 87.3125L207.184 87.0398C207.326 86.642 207.534 86.321 207.806 86.0767C208.082 85.8295 208.399 85.6506 208.757 85.5398C209.115 85.4261 209.491 85.3693 209.886 85.3693C210.147 85.3693 210.424 85.4006 210.717 85.4631C211.012 85.5227 211.288 85.6335 211.544 85.7955C211.802 85.9574 212.014 86.1889 212.179 86.4901C212.343 86.7884 212.426 87.1761 212.426 87.6534V92H211.181V91.1051H211.13C211.048 91.2699 210.924 91.4318 210.76 91.5909C210.595 91.75 210.383 91.8821 210.125 91.9872C209.866 92.0923 209.556 92.1449 209.196 92.1449ZM209.473 91.1222C209.825 91.1222 210.126 91.0526 210.376 90.9134C210.629 90.7741 210.821 90.5923 210.951 90.3679C211.085 90.1406 211.152 89.8977 211.152 89.6392V88.7955C211.106 88.8409 211.018 88.8835 210.887 88.9233C210.76 88.9602 210.613 88.9929 210.448 89.0213C210.284 89.0469 210.123 89.071 209.967 89.0938C209.811 89.1136 209.68 89.1307 209.575 89.1449C209.328 89.1761 209.102 89.2287 208.897 89.3026C208.696 89.3764 208.534 89.483 208.412 89.6222C208.292 89.7585 208.233 89.9403 208.233 90.1676C208.233 90.483 208.349 90.7216 208.582 90.8835C208.815 91.0426 209.112 91.1222 209.473 91.1222ZM215.265 83.2727V92H213.991V83.2727H215.265ZM217.652 94.4545C217.462 94.4545 217.289 94.4389 217.133 94.4077C216.976 94.3793 216.86 94.348 216.783 94.3139L217.09 93.2699C217.323 93.3324 217.53 93.3594 217.712 93.3509C217.894 93.3423 218.054 93.2741 218.194 93.1463C218.336 93.0185 218.461 92.8097 218.569 92.5199L218.726 92.0852L216.331 85.4545H217.695L219.353 90.5341H219.421L221.079 85.4545H222.447L219.749 92.8736C219.624 93.2145 219.465 93.5028 219.272 93.7386C219.079 93.9773 218.849 94.1563 218.581 94.2756C218.314 94.3949 218.005 94.4545 217.652 94.4545ZM229.483 92H226.658V83.2727H229.573C230.428 83.2727 231.162 83.4474 231.776 83.7969C232.39 84.1435 232.86 84.642 233.186 85.2926C233.516 85.9403 233.681 86.7173 233.681 87.6236C233.681 88.5327 233.515 89.3139 233.182 89.9673C232.853 90.6207 232.375 91.1236 231.75 91.4759C231.125 91.8253 230.37 92 229.483 92ZM227.975 90.8494H229.411C230.076 90.8494 230.628 90.7244 231.069 90.4744C231.509 90.2216 231.838 89.8565 232.057 89.3793C232.276 88.8991 232.385 88.3139 232.385 87.6236C232.385 86.9389 232.276 86.358 232.057 85.8807C231.841 85.4034 231.519 85.0412 231.09 84.794C230.661 84.5469 230.128 84.4233 229.492 84.4233H227.975V90.8494ZM237.905 92.1321C237.26 92.1321 236.705 91.9943 236.239 91.7188C235.776 91.4403 235.418 91.0497 235.165 90.5469C234.915 90.0412 234.79 89.4489 234.79 88.7699C234.79 88.0994 234.915 87.5085 235.165 86.9972C235.418 86.4858 235.77 86.0866 236.222 85.7997C236.676 85.5128 237.207 85.3693 237.815 85.3693C238.185 85.3693 238.543 85.4304 238.889 85.5526C239.236 85.6747 239.547 85.8665 239.823 86.1278C240.098 86.3892 240.315 86.7287 240.475 87.1463C240.634 87.5611 240.713 88.0653 240.713 88.6591V89.1108H235.51V88.1562H239.465C239.465 87.821 239.396 87.5241 239.26 87.2656C239.124 87.0043 238.932 86.7983 238.685 86.6477C238.44 86.4972 238.154 86.4219 237.824 86.4219C237.466 86.4219 237.154 86.5099 236.886 86.6861C236.622 86.8594 236.418 87.0866 236.273 87.3679C236.131 87.6463 236.06 87.9489 236.06 88.2756V89.0213C236.06 89.4588 236.136 89.831 236.29 90.1378C236.446 90.4446 236.663 90.679 236.942 90.8409C237.22 91 237.546 91.0795 237.918 91.0795C238.159 91.0795 238.379 91.0455 238.578 90.9773C238.777 90.9062 238.949 90.8011 239.094 90.6619C239.239 90.5227 239.35 90.3509 239.426 90.1463L240.632 90.3636C240.536 90.7187 240.362 91.0298 240.112 91.2969C239.865 91.5611 239.554 91.767 239.179 91.9148C238.807 92.0597 238.382 92.1321 237.905 92.1321ZM245.05 85.4545V86.4773H241.475V85.4545H245.05ZM242.434 83.8864H243.708V90.0781C243.708 90.3253 243.745 90.5114 243.819 90.6364C243.893 90.7585 243.988 90.8423 244.104 90.8878C244.224 90.9304 244.353 90.9517 244.492 90.9517C244.594 90.9517 244.684 90.9446 244.761 90.9304C244.837 90.9162 244.897 90.9048 244.939 90.8963L245.17 91.9489C245.096 91.9773 244.991 92.0057 244.854 92.0341C244.718 92.0653 244.547 92.0824 244.343 92.0852C244.008 92.0909 243.695 92.0312 243.405 91.9062C243.116 91.7812 242.881 91.5881 242.702 91.3267C242.523 91.0653 242.434 90.7372 242.434 90.3423V83.8864ZM249.078 92.1321C248.434 92.1321 247.878 91.9943 247.412 91.7188C246.949 91.4403 246.591 91.0497 246.338 90.5469C246.088 90.0412 245.963 89.4489 245.963 88.7699C245.963 88.0994 246.088 87.5085 246.338 86.9972C246.591 86.4858 246.943 86.0866 247.395 85.7997C247.85 85.5128 248.381 85.3693 248.989 85.3693C249.358 85.3693 249.716 85.4304 250.063 85.5526C250.409 85.6747 250.72 85.8665 250.996 86.1278C251.272 86.3892 251.489 86.7287 251.648 87.1463C251.807 87.5611 251.887 88.0653 251.887 88.6591V89.1108H246.684V88.1562H250.638C250.638 87.821 250.57 87.5241 250.434 87.2656C250.297 87.0043 250.105 86.7983 249.858 86.6477C249.614 86.4972 249.327 86.4219 248.997 86.4219C248.64 86.4219 248.327 86.5099 248.06 86.6861C247.796 86.8594 247.591 87.0866 247.446 87.3679C247.304 87.6463 247.233 87.9489 247.233 88.2756V89.0213C247.233 89.4588 247.31 89.831 247.463 90.1378C247.62 90.4446 247.837 90.679 248.115 90.8409C248.394 91 248.719 91.0795 249.091 91.0795C249.333 91.0795 249.553 91.0455 249.752 90.9773C249.951 90.9062 250.122 90.8011 250.267 90.6619C250.412 90.5227 250.523 90.3509 250.6 90.1463L251.806 90.3636C251.709 90.7187 251.536 91.0298 251.286 91.2969C251.039 91.5611 250.728 91.767 250.353 91.9148C249.98 92.0597 249.556 92.1321 249.078 92.1321ZM255.925 92.1321C255.292 92.1321 254.747 91.9886 254.289 91.7017C253.835 91.4119 253.485 91.0128 253.241 90.5043C252.997 89.9957 252.874 89.4134 252.874 88.7571C252.874 88.0923 252.999 87.5057 253.249 86.9972C253.499 86.4858 253.852 86.0866 254.306 85.7997C254.761 85.5128 255.296 85.3693 255.913 85.3693C256.41 85.3693 256.853 85.4616 257.242 85.6463C257.631 85.8281 257.945 86.0838 258.184 86.4134C258.425 86.7429 258.569 87.1278 258.614 87.5682H257.374C257.306 87.2614 257.15 86.9972 256.906 86.7756C256.664 86.554 256.34 86.4432 255.934 86.4432C255.579 86.4432 255.268 86.5369 255.001 86.7244C254.737 86.9091 254.531 87.1733 254.383 87.517C254.235 87.858 254.161 88.2614 254.161 88.7273C254.161 89.2045 254.234 89.6165 254.379 89.9631C254.523 90.3097 254.728 90.5781 254.992 90.7685C255.259 90.9588 255.573 91.054 255.934 91.054C256.175 91.054 256.394 91.0099 256.59 90.9219C256.789 90.831 256.955 90.7017 257.089 90.5341C257.225 90.3665 257.32 90.1648 257.374 89.929H258.614C258.569 90.3523 258.431 90.7301 258.201 91.0625C257.971 91.3949 257.663 91.6562 257.276 91.8466C256.893 92.0369 256.443 92.1321 255.925 92.1321ZM262.9 85.4545V86.4773H259.325V85.4545H262.9ZM260.284 83.8864H261.558V90.0781C261.558 90.3253 261.595 90.5114 261.669 90.6364C261.743 90.7585 261.838 90.8423 261.954 90.8878C262.074 90.9304 262.203 90.9517 262.342 90.9517C262.444 90.9517 262.534 90.9446 262.611 90.9304C262.687 90.9162 262.747 90.9048 262.79 90.8963L263.02 91.9489C262.946 91.9773 262.841 92.0057 262.704 92.0341C262.568 92.0653 262.398 92.0824 262.193 92.0852C261.858 92.0909 261.545 92.0312 261.255 91.9062C260.966 91.7812 260.731 91.5881 260.552 91.3267C260.373 91.0653 260.284 90.7372 260.284 90.3423V83.8864ZM264.178 92V85.4545H265.452V92H264.178ZM264.821 84.4446C264.6 84.4446 264.409 84.3707 264.25 84.223C264.094 84.0724 264.016 83.8935 264.016 83.6861C264.016 83.4759 264.094 83.2969 264.25 83.1491C264.409 82.9986 264.6 82.9233 264.821 82.9233C265.043 82.9233 265.232 82.9986 265.388 83.1491C265.547 83.2969 265.627 83.4759 265.627 83.6861C265.627 83.8935 265.547 84.0724 265.388 84.223C265.232 84.3707 265.043 84.4446 264.821 84.4446ZM269.791 92.1321C269.178 92.1321 268.642 91.9915 268.185 91.7102C267.727 91.429 267.372 91.0355 267.119 90.5298C266.866 90.0241 266.74 89.4332 266.74 88.7571C266.74 88.0781 266.866 87.4844 267.119 86.9759C267.372 86.4673 267.727 86.0724 268.185 85.7912C268.642 85.5099 269.178 85.3693 269.791 85.3693C270.405 85.3693 270.94 85.5099 271.398 85.7912C271.855 86.0724 272.21 86.4673 272.463 86.9759C272.716 87.4844 272.842 88.0781 272.842 88.7571C272.842 89.4332 272.716 90.0241 272.463 90.5298C272.21 91.0355 271.855 91.429 271.398 91.7102C270.94 91.9915 270.405 92.1321 269.791 92.1321ZM269.795 91.0625C270.193 91.0625 270.523 90.9574 270.784 90.7472C271.045 90.5369 271.239 90.2571 271.364 89.9077C271.491 89.5582 271.555 89.1733 271.555 88.7528C271.555 88.3352 271.491 87.9517 271.364 87.6023C271.239 87.25 271.045 86.9673 270.784 86.7543C270.523 86.5412 270.193 86.4347 269.795 86.4347C269.395 86.4347 269.063 86.5412 268.798 86.7543C268.537 86.9673 268.342 87.25 268.214 87.6023C268.089 87.9517 268.027 88.3352 268.027 88.7528C268.027 89.1733 268.089 89.5582 268.214 89.9077C268.342 90.2571 268.537 90.5369 268.798 90.7472C269.063 90.9574 269.395 91.0625 269.795 91.0625ZM275.407 88.1136V92H274.133V85.4545H275.356V86.5199H275.437C275.587 86.1733 275.823 85.8949 276.144 85.6847C276.468 85.4744 276.875 85.3693 277.367 85.3693C277.813 85.3693 278.204 85.4631 278.539 85.6506C278.874 85.8352 279.134 86.1108 279.319 86.4773C279.503 86.8437 279.596 87.2969 279.596 87.8366V92H278.321V87.9901C278.321 87.5156 278.198 87.1449 277.951 86.8778C277.704 86.608 277.364 86.473 276.932 86.473C276.637 86.473 276.374 86.5369 276.144 86.6648C275.917 86.7926 275.736 86.9801 275.603 87.2273C275.472 87.4716 275.407 87.767 275.407 88.1136Z" fill="white"/>
</g>
</g>
<g filter="url(#filter8_d_876_605)">
<rect x="16" y="120" width="186" height="40" rx="20" fill="url(#paint4_linear_876_605)" shape-rendering="crispEdges"/>
<rect x="16.25" y="120.25" width="185.5" height="39.5" rx="19.75" stroke="black" stroke-opacity="0.12" stroke-width="0.5" shape-rendering="crispEdges"/>
<g filter="url(#filter9_d_876_605)">
<path d="M54.4472 144V135.273H57.558C58.237 135.273 58.7995 135.396 59.2455 135.643C59.6915 135.891 60.0253 136.229 60.2469 136.658C60.4685 137.084 60.5793 137.564 60.5793 138.098C60.5793 138.635 60.4671 139.118 60.2426 139.547C60.021 139.973 59.6858 140.311 59.237 140.561C58.7909 140.808 58.2299 140.932 57.5537 140.932H55.4145V139.815H57.4344C57.8634 139.815 58.2114 139.741 58.4784 139.594C58.7455 139.443 58.9415 139.239 59.0665 138.98C59.1915 138.722 59.254 138.428 59.254 138.098C59.254 137.768 59.1915 137.476 59.0665 137.22C58.9415 136.964 58.7441 136.764 58.4742 136.619C58.2071 136.474 57.8549 136.402 57.4174 136.402H55.7639V144H54.4472ZM61.8887 144V137.455H63.1202V138.494H63.1884C63.3077 138.142 63.518 137.865 63.8191 137.663C64.1231 137.459 64.4668 137.357 64.8503 137.357C64.9299 137.357 65.0236 137.359 65.1316 137.365C65.2424 137.371 65.329 137.378 65.3915 137.386V138.605C65.3404 138.591 65.2495 138.575 65.1188 138.558C64.9881 138.538 64.8574 138.528 64.7268 138.528C64.4256 138.528 64.1572 138.592 63.9214 138.72C63.6884 138.845 63.5037 139.02 63.3674 139.244C63.231 139.466 63.1628 139.719 63.1628 140.003V144H61.8887ZM68.9488 144.132C68.3039 144.132 67.7485 143.994 67.2826 143.719C66.8195 143.44 66.4616 143.05 66.2088 142.547C65.9588 142.041 65.8338 141.449 65.8338 140.77C65.8338 140.099 65.9588 139.509 66.2088 138.997C66.4616 138.486 66.8139 138.087 67.2656 137.8C67.7201 137.513 68.2514 137.369 68.8593 137.369C69.2286 137.369 69.5866 137.43 69.9332 137.553C70.2798 137.675 70.5909 137.866 70.8664 138.128C71.142 138.389 71.3593 138.729 71.5184 139.146C71.6775 139.561 71.757 140.065 71.757 140.659V141.111H66.5539V140.156H70.5085C70.5085 139.821 70.4403 139.524 70.3039 139.266C70.1676 139.004 69.9758 138.798 69.7286 138.648C69.4843 138.497 69.1974 138.422 68.8678 138.422C68.5099 138.422 68.1974 138.51 67.9303 138.686C67.6661 138.859 67.4616 139.087 67.3167 139.368C67.1747 139.646 67.1036 139.949 67.1036 140.276V141.021C67.1036 141.459 67.1803 141.831 67.3338 142.138C67.49 142.445 67.7073 142.679 67.9857 142.841C68.2641 143 68.5894 143.08 68.9616 143.08C69.2031 143.08 69.4232 143.045 69.6221 142.977C69.821 142.906 69.9928 142.801 70.1377 142.662C70.2826 142.523 70.3934 142.351 70.4701 142.146L71.6761 142.364C71.5795 142.719 71.4062 143.03 71.1562 143.297C70.909 143.561 70.598 143.767 70.223 143.915C69.8508 144.06 69.4261 144.132 68.9488 144.132ZM75.489 144.128C74.9606 144.128 74.489 143.993 74.0743 143.723C73.6623 143.45 73.3385 143.062 73.1027 142.56C72.8697 142.054 72.7532 141.447 72.7532 140.74C72.7532 140.033 72.8711 139.428 73.1069 138.925C73.3456 138.422 73.6723 138.037 74.0871 137.77C74.5018 137.503 74.972 137.369 75.4976 137.369C75.9038 137.369 76.2305 137.438 76.4777 137.574C76.7277 137.707 76.9209 137.864 77.0572 138.043C77.1964 138.222 77.3044 138.379 77.3811 138.516H77.4578V135.273H78.7319V144H77.4876V142.982H77.3811C77.3044 143.121 77.1936 143.28 77.0487 143.459C76.9067 143.638 76.7106 143.794 76.4606 143.928C76.2106 144.061 75.8868 144.128 75.489 144.128ZM75.7703 143.041C76.1368 143.041 76.4464 142.945 76.6993 142.751C76.9549 142.555 77.1481 142.284 77.2788 141.938C77.4123 141.591 77.4791 141.187 77.4791 140.727C77.4791 140.273 77.4138 139.875 77.2831 139.534C77.1524 139.193 76.9606 138.928 76.7078 138.737C76.4549 138.547 76.1424 138.452 75.7703 138.452C75.3868 138.452 75.0672 138.551 74.8115 138.75C74.5558 138.949 74.3626 139.22 74.2319 139.564C74.1041 139.908 74.0402 140.295 74.0402 140.727C74.0402 141.165 74.1055 141.558 74.2362 141.908C74.3669 142.257 74.5601 142.534 74.8157 142.739C75.0743 142.94 75.3924 143.041 75.7703 143.041ZM80.4185 144V137.455H81.6926V144H80.4185ZM81.0619 136.445C80.8403 136.445 80.65 136.371 80.4909 136.223C80.3347 136.072 80.2565 135.893 80.2565 135.686C80.2565 135.476 80.3347 135.297 80.4909 135.149C80.65 134.999 80.8403 134.923 81.0619 134.923C81.2835 134.923 81.4725 134.999 81.6287 135.149C81.7878 135.297 81.8673 135.476 81.8673 135.686C81.8673 135.893 81.7878 136.072 81.6287 136.223C81.4725 136.371 81.2835 136.445 81.0619 136.445ZM86.0319 144.132C85.3983 144.132 84.8529 143.989 84.3955 143.702C83.9409 143.412 83.5915 143.013 83.3472 142.504C83.1029 141.996 82.9807 141.413 82.9807 140.757C82.9807 140.092 83.1057 139.506 83.3557 138.997C83.6057 138.486 83.958 138.087 84.4125 137.8C84.8671 137.513 85.4026 137.369 86.0191 137.369C86.5162 137.369 86.9594 137.462 87.3486 137.646C87.7378 137.828 88.0517 138.084 88.2904 138.413C88.5319 138.743 88.6753 139.128 88.7208 139.568H87.4807C87.4125 139.261 87.2563 138.997 87.012 138.776C86.7705 138.554 86.4466 138.443 86.0404 138.443C85.6853 138.443 85.3742 138.537 85.1071 138.724C84.8429 138.909 84.637 139.173 84.4892 139.517C84.3415 139.858 84.2677 140.261 84.2677 140.727C84.2677 141.205 84.3401 141.616 84.485 141.963C84.6299 142.31 84.8344 142.578 85.0986 142.768C85.3657 142.959 85.6796 143.054 86.0404 143.054C86.2819 143.054 86.5006 143.01 86.6966 142.922C86.8955 142.831 87.0617 142.702 87.1952 142.534C87.3316 142.366 87.4267 142.165 87.4807 141.929H88.7208C88.6753 142.352 88.5375 142.73 88.3074 143.062C88.0773 143.395 87.7691 143.656 87.3827 143.847C86.9992 144.037 86.5489 144.132 86.0319 144.132ZM93.0067 137.455V138.477H89.4315V137.455H93.0067ZM90.3903 135.886H91.6644V142.078C91.6644 142.325 91.7013 142.511 91.7752 142.636C91.8491 142.759 91.9442 142.842 92.0607 142.888C92.18 142.93 92.3093 142.952 92.4485 142.952C92.5508 142.952 92.6403 142.945 92.717 142.93C92.7937 142.916 92.8533 142.905 92.896 142.896L93.1261 143.949C93.0522 143.977 92.9471 144.006 92.8107 144.034C92.6744 144.065 92.5039 144.082 92.2994 144.085C91.9641 144.091 91.6516 144.031 91.3619 143.906C91.0721 143.781 90.8377 143.588 90.6587 143.327C90.4798 143.065 90.3903 142.737 90.3903 142.342V135.886ZM94.2842 144V137.455H95.5583V144H94.2842ZM94.9277 136.445C94.7061 136.445 94.5157 136.371 94.3566 136.223C94.2004 136.072 94.1223 135.893 94.1223 135.686C94.1223 135.476 94.2004 135.297 94.3566 135.149C94.5157 134.999 94.7061 134.923 94.9277 134.923C95.1492 134.923 95.3382 134.999 95.4944 135.149C95.6535 135.297 95.7331 135.476 95.7331 135.686C95.7331 135.893 95.6535 136.072 95.4944 136.223C95.3382 136.371 95.1492 136.445 94.9277 136.445ZM102.74 137.455L100.366 144H99.0027L96.6248 137.455H97.9927L99.6504 142.491H99.7186L101.372 137.455H102.74ZM106.404 144.132C105.759 144.132 105.203 143.994 104.738 143.719C104.274 143.44 103.916 143.05 103.664 142.547C103.414 142.041 103.289 141.449 103.289 140.77C103.289 140.099 103.414 139.509 103.664 138.997C103.916 138.486 104.269 138.087 104.72 137.8C105.175 137.513 105.706 137.369 106.314 137.369C106.684 137.369 107.041 137.43 107.388 137.553C107.735 137.675 108.046 137.866 108.321 138.128C108.597 138.389 108.814 138.729 108.973 139.146C109.132 139.561 109.212 140.065 109.212 140.659V141.111H104.009V140.156H107.963C107.963 139.821 107.895 139.524 107.759 139.266C107.622 139.004 107.431 138.798 107.184 138.648C106.939 138.497 106.652 138.422 106.323 138.422C105.965 138.422 105.652 138.51 105.385 138.686C105.121 138.859 104.916 139.087 104.772 139.368C104.63 139.646 104.559 139.949 104.559 140.276V141.021C104.559 141.459 104.635 141.831 104.789 142.138C104.945 142.445 105.162 142.679 105.441 142.841C105.719 143 106.044 143.08 106.416 143.08C106.658 143.08 106.878 143.045 107.077 142.977C107.276 142.906 107.448 142.801 107.593 142.662C107.738 142.523 107.848 142.351 107.925 142.146L109.131 142.364C109.034 142.719 108.861 143.03 108.611 143.297C108.364 143.561 108.053 143.767 107.678 143.915C107.306 144.06 106.881 144.132 106.404 144.132ZM114.377 144H112.979L116.12 135.273H117.641L120.782 144H119.384L116.917 136.858H116.849L114.377 144ZM114.611 140.582H119.145V141.69H114.611V140.582ZM123.082 140.114V144H121.808V137.455H123.031V138.52H123.112C123.262 138.173 123.498 137.895 123.819 137.685C124.143 137.474 124.551 137.369 125.042 137.369C125.488 137.369 125.879 137.463 126.214 137.651C126.549 137.835 126.809 138.111 126.994 138.477C127.179 138.844 127.271 139.297 127.271 139.837V144H125.997V139.99C125.997 139.516 125.873 139.145 125.626 138.878C125.379 138.608 125.039 138.473 124.607 138.473C124.312 138.473 124.049 138.537 123.819 138.665C123.592 138.793 123.411 138.98 123.278 139.227C123.147 139.472 123.082 139.767 123.082 140.114ZM130.752 144.145C130.338 144.145 129.963 144.068 129.627 143.915C129.292 143.759 129.027 143.533 128.831 143.237C128.637 142.942 128.541 142.58 128.541 142.151C128.541 141.781 128.612 141.477 128.754 141.239C128.896 141 129.088 140.811 129.329 140.672C129.571 140.533 129.841 140.428 130.139 140.357C130.437 140.286 130.741 140.232 131.051 140.195C131.443 140.149 131.761 140.112 132.005 140.084C132.25 140.053 132.427 140.003 132.538 139.935C132.649 139.866 132.704 139.756 132.704 139.602V139.572C132.704 139.2 132.599 138.912 132.389 138.707C132.181 138.503 131.872 138.401 131.46 138.401C131.031 138.401 130.693 138.496 130.446 138.686C130.201 138.874 130.032 139.082 129.939 139.312L128.741 139.04C128.883 138.642 129.091 138.321 129.363 138.077C129.639 137.83 129.956 137.651 130.314 137.54C130.672 137.426 131.048 137.369 131.443 137.369C131.704 137.369 131.981 137.401 132.274 137.463C132.569 137.523 132.845 137.634 133.1 137.795C133.359 137.957 133.571 138.189 133.735 138.49C133.9 138.788 133.983 139.176 133.983 139.653V144H132.738V143.105H132.687C132.605 143.27 132.481 143.432 132.316 143.591C132.152 143.75 131.94 143.882 131.681 143.987C131.423 144.092 131.113 144.145 130.752 144.145ZM131.029 143.122C131.382 143.122 131.683 143.053 131.933 142.913C132.186 142.774 132.377 142.592 132.508 142.368C132.642 142.141 132.708 141.898 132.708 141.639V140.795C132.663 140.841 132.575 140.884 132.444 140.923C132.316 140.96 132.17 140.993 132.005 141.021C131.841 141.047 131.68 141.071 131.524 141.094C131.368 141.114 131.237 141.131 131.132 141.145C130.885 141.176 130.659 141.229 130.454 141.303C130.252 141.376 130.091 141.483 129.968 141.622C129.849 141.759 129.789 141.94 129.789 142.168C129.789 142.483 129.906 142.722 130.139 142.884C130.372 143.043 130.669 143.122 131.029 143.122ZM136.822 135.273V144H135.548V135.273H136.822ZM139.209 146.455C139.019 146.455 138.846 146.439 138.689 146.408C138.533 146.379 138.417 146.348 138.34 146.314L138.647 145.27C138.88 145.332 139.087 145.359 139.269 145.351C139.451 145.342 139.611 145.274 139.751 145.146C139.893 145.018 140.018 144.81 140.126 144.52L140.283 144.085L137.888 137.455H139.252L140.91 142.534H140.978L142.636 137.455H144.003L141.306 144.874C141.181 145.214 141.022 145.503 140.829 145.739C140.636 145.977 140.405 146.156 140.138 146.276C139.871 146.395 139.562 146.455 139.209 146.455ZM148.124 137.455V138.477H144.549V137.455H148.124ZM145.508 135.886H146.782V142.078C146.782 142.325 146.819 142.511 146.893 142.636C146.967 142.759 147.062 142.842 147.178 142.888C147.298 142.93 147.427 142.952 147.566 142.952C147.668 142.952 147.758 142.945 147.834 142.93C147.911 142.916 147.971 142.905 148.013 142.896L148.244 143.949C148.17 143.977 148.065 144.006 147.928 144.034C147.792 144.065 147.621 144.082 147.417 144.085C147.082 144.091 146.769 144.031 146.479 143.906C146.19 143.781 145.955 143.588 145.776 143.327C145.597 143.065 145.508 142.737 145.508 142.342V135.886ZM149.402 144V137.455H150.676V144H149.402ZM150.045 136.445C149.824 136.445 149.633 136.371 149.474 136.223C149.318 136.072 149.24 135.893 149.24 135.686C149.24 135.476 149.318 135.297 149.474 135.149C149.633 134.999 149.824 134.923 150.045 134.923C150.267 134.923 150.456 134.999 150.612 135.149C150.771 135.297 150.851 135.476 150.851 135.686C150.851 135.893 150.771 136.072 150.612 136.223C150.456 136.371 150.267 136.445 150.045 136.445ZM155.015 144.132C154.382 144.132 153.836 143.989 153.379 143.702C152.924 143.412 152.575 143.013 152.33 142.504C152.086 141.996 151.964 141.413 151.964 140.757C151.964 140.092 152.089 139.506 152.339 138.997C152.589 138.486 152.941 138.087 153.396 137.8C153.85 137.513 154.386 137.369 155.002 137.369C155.499 137.369 155.943 137.462 156.332 137.646C156.721 137.828 157.035 138.084 157.274 138.413C157.515 138.743 157.659 139.128 157.704 139.568H156.464C156.396 139.261 156.24 138.997 155.995 138.776C155.754 138.554 155.43 138.443 155.024 138.443C154.668 138.443 154.357 138.537 154.09 138.724C153.826 138.909 153.62 139.173 153.472 139.517C153.325 139.858 153.251 140.261 153.251 140.727C153.251 141.205 153.323 141.616 153.468 141.963C153.613 142.31 153.818 142.578 154.082 142.768C154.349 142.959 154.663 143.054 155.024 143.054C155.265 143.054 155.484 143.01 155.68 142.922C155.879 142.831 156.045 142.702 156.178 142.534C156.315 142.366 156.41 142.165 156.464 141.929H157.704C157.659 142.352 157.521 142.73 157.291 143.062C157.061 143.395 156.752 143.656 156.366 143.847C155.982 144.037 155.532 144.132 155.015 144.132ZM163.839 139.053L162.685 139.257C162.636 139.109 162.56 138.969 162.454 138.835C162.352 138.702 162.213 138.592 162.037 138.507C161.861 138.422 161.641 138.379 161.376 138.379C161.016 138.379 160.714 138.46 160.473 138.622C160.231 138.781 160.111 138.987 160.111 139.24C160.111 139.459 160.192 139.635 160.354 139.768C160.516 139.902 160.777 140.011 161.138 140.097L162.177 140.335C162.78 140.474 163.229 140.689 163.524 140.979C163.82 141.268 163.967 141.645 163.967 142.108C163.967 142.5 163.854 142.849 163.626 143.156C163.402 143.46 163.088 143.699 162.685 143.872C162.284 144.045 161.82 144.132 161.291 144.132C160.558 144.132 159.96 143.976 159.497 143.663C159.034 143.348 158.75 142.901 158.645 142.321L159.876 142.134C159.953 142.455 160.111 142.697 160.349 142.862C160.588 143.024 160.899 143.105 161.283 143.105C161.7 143.105 162.034 143.018 162.284 142.845C162.534 142.669 162.659 142.455 162.659 142.202C162.659 141.997 162.582 141.825 162.429 141.686C162.278 141.547 162.047 141.442 161.734 141.371L160.626 141.128C160.016 140.989 159.564 140.767 159.271 140.463C158.981 140.159 158.837 139.774 158.837 139.308C158.837 138.922 158.945 138.584 159.16 138.294C159.376 138.004 159.675 137.778 160.055 137.616C160.436 137.452 160.872 137.369 161.364 137.369C162.071 137.369 162.628 137.523 163.034 137.83C163.44 138.134 163.709 138.541 163.839 139.053Z" fill="white"/>
</g>
</g>
<g filter="url(#filter10_d_876_605)">
<path d="M211 140C211 128.954 219.954 120 231 120C242.046 120 251 128.954 251 140C251 151.046 242.046 160 231 160C219.954 160 211 151.046 211 140Z" fill="url(#paint5_linear_876_605)"/>
<path d="M231 120.228C241.92 120.228 250.772 129.08 250.772 140C250.772 150.92 241.92 159.772 231 159.772C220.08 159.772 211.228 150.92 211.228 140C211.228 129.08 220.08 120.228 231 120.228Z" stroke="black" stroke-opacity="0.12" stroke-width="0.454549"/>
<g filter="url(#filter11_d_876_605)">
<path d="M224.938 144.546V135.456C224.938 135.054 225.097 134.668 225.381 134.384C225.665 134.1 226.051 133.94 226.453 133.94H235.543C235.945 133.94 236.331 134.1 236.615 134.384C236.899 134.668 237.059 135.054 237.059 135.456V144.546C237.059 144.948 236.899 145.334 236.615 145.618C236.331 145.902 235.945 146.062 235.543 146.062H226.453C226.051 146.062 225.665 145.902 225.381 145.618C225.097 145.334 224.938 144.948 224.938 144.546Z" stroke="white" stroke-width="1.51514" stroke-linecap="round" stroke-linejoin="round"/>
<path d="M227.211 141.516L229.484 139.243L230.999 140.758L233.271 138.486L234.787 140.001" stroke="white" stroke-width="1.51514" stroke-linecap="round" stroke-linejoin="round"/>
</g>
</g>
<g filter="url(#filter12_d_876_605)">
<path d="M86 192C86 180.954 94.9543 172 106 172C117.046 172 126 180.954 126 192C126 203.046 117.046 212 106 212C94.9543 212 86 203.046 86 192Z" fill="url(#paint6_linear_876_605)"/>
<path d="M106 172.228C116.92 172.228 125.772 181.08 125.772 192C125.772 202.92 116.92 211.772 106 211.772C95.0798 211.772 86.2275 202.92 86.2275 192C86.2275 181.08 95.0798 172.228 106 172.228Z" stroke="black" stroke-opacity="0.12" stroke-width="0.454547"/>
<g filter="url(#filter13_d_876_605)">
<path d="M104.731 186.18C105.054 184.849 106.946 184.849 107.269 186.18C107.317 186.38 107.412 186.565 107.546 186.721C107.679 186.878 107.848 187 108.038 187.079C108.228 187.157 108.434 187.19 108.639 187.174C108.844 187.158 109.042 187.094 109.218 186.987C110.387 186.275 111.726 187.613 111.013 188.783C110.907 188.958 110.843 189.156 110.827 189.361C110.811 189.566 110.844 189.772 110.922 189.962C111.001 190.152 111.123 190.32 111.279 190.454C111.435 190.588 111.621 190.683 111.82 190.731C113.151 191.054 113.151 192.946 111.82 193.269C111.62 193.318 111.435 193.412 111.279 193.546C111.122 193.68 111 193.849 110.921 194.039C110.842 194.228 110.81 194.434 110.826 194.639C110.842 194.844 110.906 195.043 111.013 195.218C111.725 196.387 110.387 197.726 109.217 197.014C109.042 196.907 108.843 196.843 108.639 196.827C108.434 196.811 108.228 196.844 108.038 196.923C107.848 197.001 107.68 197.123 107.546 197.279C107.412 197.436 107.317 197.621 107.269 197.821C106.946 199.151 105.054 199.151 104.731 197.821C104.682 197.621 104.588 197.435 104.454 197.279C104.32 197.123 104.151 197 103.961 196.922C103.771 196.843 103.566 196.81 103.361 196.826C103.156 196.842 102.957 196.906 102.782 197.013C101.613 197.725 100.274 196.387 100.986 195.218C101.093 195.042 101.157 194.844 101.173 194.639C101.189 194.434 101.156 194.228 101.077 194.039C100.999 193.849 100.877 193.68 100.72 193.546C100.564 193.413 100.379 193.318 100.179 193.269C98.8491 192.946 98.8491 191.054 100.179 190.731C100.379 190.683 100.565 190.588 100.721 190.454C100.877 190.32 101 190.152 101.078 189.962C101.157 189.772 101.19 189.566 101.174 189.361C101.158 189.156 101.094 188.958 100.987 188.782C100.275 187.613 101.613 186.274 102.782 186.987C103.54 187.447 104.522 187.04 104.731 186.18Z" stroke="white" stroke-width="1.51515" stroke-linecap="round" stroke-linejoin="round"/>
<path d="M104.484 189.727V194.273L108.272 192L104.484 189.727Z" stroke="white" stroke-width="1.51515" stroke-linecap="round" stroke-linejoin="round"/>
</g>
</g>
<g filter="url(#filter14_d_876_605)">
<rect x="135" y="172" width="184" height="40" rx="20" fill="url(#paint7_linear_876_605)" shape-rendering="crispEdges"/>
<rect x="135.25" y="172.25" width="183.5" height="39.5" rx="19.75" stroke="black" stroke-opacity="0.12" stroke-width="0.5" shape-rendering="crispEdges"/>
<g filter="url(#filter15_d_876_605)">
<path d="M171.266 196V187.273H174.377C175.056 187.273 175.619 187.396 176.065 187.643C176.511 187.891 176.844 188.229 177.066 188.658C177.288 189.084 177.398 189.564 177.398 190.098C177.398 190.635 177.286 191.118 177.062 191.547C176.84 191.973 176.505 192.311 176.056 192.561C175.61 192.808 175.049 192.932 174.373 192.932H172.234V191.815H174.254C174.683 191.815 175.031 191.741 175.298 191.594C175.565 191.443 175.761 191.239 175.886 190.98C176.011 190.722 176.073 190.428 176.073 190.098C176.073 189.768 176.011 189.476 175.886 189.22C175.761 188.964 175.563 188.764 175.293 188.619C175.026 188.474 174.674 188.402 174.237 188.402H172.583V196H171.266ZM178.708 196V189.455H179.939V190.494H180.008C180.127 190.142 180.337 189.865 180.638 189.663C180.942 189.459 181.286 189.357 181.67 189.357C181.749 189.357 181.843 189.359 181.951 189.365C182.062 189.371 182.148 189.378 182.211 189.386V190.605C182.16 190.591 182.069 190.575 181.938 190.558C181.807 190.538 181.677 190.528 181.546 190.528C181.245 190.528 180.976 190.592 180.741 190.72C180.508 190.845 180.323 191.02 180.187 191.244C180.05 191.466 179.982 191.719 179.982 192.003V196H178.708ZM185.704 196.132C185.09 196.132 184.555 195.991 184.098 195.71C183.64 195.429 183.285 195.036 183.032 194.53C182.779 194.024 182.653 193.433 182.653 192.757C182.653 192.078 182.779 191.484 183.032 190.976C183.285 190.467 183.64 190.072 184.098 189.791C184.555 189.51 185.09 189.369 185.704 189.369C186.318 189.369 186.853 189.51 187.311 189.791C187.768 190.072 188.123 190.467 188.376 190.976C188.629 191.484 188.755 192.078 188.755 192.757C188.755 193.433 188.629 194.024 188.376 194.53C188.123 195.036 187.768 195.429 187.311 195.71C186.853 195.991 186.318 196.132 185.704 196.132ZM185.708 195.062C186.106 195.062 186.436 194.957 186.697 194.747C186.958 194.537 187.152 194.257 187.277 193.908C187.404 193.558 187.468 193.173 187.468 192.753C187.468 192.335 187.404 191.952 187.277 191.602C187.152 191.25 186.958 190.967 186.697 190.754C186.436 190.541 186.106 190.435 185.708 190.435C185.308 190.435 184.975 190.541 184.711 190.754C184.45 190.967 184.255 191.25 184.127 191.602C184.002 191.952 183.94 192.335 183.94 192.753C183.94 193.173 184.002 193.558 184.127 193.908C184.255 194.257 184.45 194.537 184.711 194.747C184.975 194.957 185.308 195.062 185.708 195.062ZM192.803 196.132C192.169 196.132 191.624 195.989 191.166 195.702C190.712 195.412 190.362 195.013 190.118 194.504C189.874 193.996 189.751 193.413 189.751 192.757C189.751 192.092 189.876 191.506 190.126 190.997C190.376 190.486 190.729 190.087 191.183 189.8C191.638 189.513 192.173 189.369 192.79 189.369C193.287 189.369 193.73 189.462 194.119 189.646C194.508 189.828 194.822 190.084 195.061 190.413C195.303 190.743 195.446 191.128 195.491 191.568H194.251C194.183 191.261 194.027 190.997 193.783 190.776C193.541 190.554 193.217 190.443 192.811 190.443C192.456 190.443 192.145 190.537 191.878 190.724C191.614 190.909 191.408 191.173 191.26 191.517C191.112 191.858 191.038 192.261 191.038 192.727C191.038 193.205 191.111 193.616 191.256 193.963C191.401 194.31 191.605 194.578 191.869 194.768C192.136 194.959 192.45 195.054 192.811 195.054C193.053 195.054 193.271 195.01 193.467 194.922C193.666 194.831 193.832 194.702 193.966 194.534C194.102 194.366 194.197 194.165 194.251 193.929H195.491C195.446 194.352 195.308 194.73 195.078 195.062C194.848 195.395 194.54 195.656 194.153 195.847C193.77 196.037 193.32 196.132 192.803 196.132ZM199.543 196.132C198.898 196.132 198.343 195.994 197.877 195.719C197.414 195.44 197.056 195.05 196.803 194.547C196.553 194.041 196.428 193.449 196.428 192.77C196.428 192.099 196.553 191.509 196.803 190.997C197.056 190.486 197.408 190.087 197.86 189.8C198.314 189.513 198.846 189.369 199.454 189.369C199.823 189.369 200.181 189.43 200.527 189.553C200.874 189.675 201.185 189.866 201.461 190.128C201.736 190.389 201.954 190.729 202.113 191.146C202.272 191.561 202.351 192.065 202.351 192.659V193.111H197.148V192.156H201.103C201.103 191.821 201.035 191.524 200.898 191.266C200.762 191.004 200.57 190.798 200.323 190.648C200.079 190.497 199.792 190.422 199.462 190.422C199.104 190.422 198.792 190.51 198.525 190.686C198.26 190.859 198.056 191.087 197.911 191.368C197.769 191.646 197.698 191.949 197.698 192.276V193.021C197.698 193.459 197.775 193.831 197.928 194.138C198.084 194.445 198.302 194.679 198.58 194.841C198.858 195 199.184 195.08 199.556 195.08C199.797 195.08 200.017 195.045 200.216 194.977C200.415 194.906 200.587 194.801 200.732 194.662C200.877 194.523 200.988 194.351 201.064 194.146L202.27 194.364C202.174 194.719 202 195.03 201.75 195.297C201.503 195.561 201.192 195.767 200.817 195.915C200.445 196.06 200.02 196.132 199.543 196.132ZM208.538 191.053L207.383 191.257C207.335 191.109 207.258 190.969 207.153 190.835C207.051 190.702 206.911 190.592 206.735 190.507C206.559 190.422 206.339 190.379 206.075 190.379C205.714 190.379 205.413 190.46 205.171 190.622C204.93 190.781 204.809 190.987 204.809 191.24C204.809 191.459 204.89 191.635 205.052 191.768C205.214 191.902 205.475 192.011 205.836 192.097L206.876 192.335C207.478 192.474 207.927 192.689 208.222 192.979C208.518 193.268 208.666 193.645 208.666 194.108C208.666 194.5 208.552 194.849 208.325 195.156C208.1 195.46 207.786 195.699 207.383 195.872C206.982 196.045 206.518 196.132 205.99 196.132C205.257 196.132 204.659 195.976 204.195 195.663C203.732 195.348 203.448 194.901 203.343 194.321L204.575 194.134C204.651 194.455 204.809 194.697 205.048 194.862C205.286 195.024 205.597 195.105 205.981 195.105C206.399 195.105 206.732 195.018 206.982 194.845C207.232 194.669 207.357 194.455 207.357 194.202C207.357 193.997 207.281 193.825 207.127 193.686C206.977 193.547 206.745 193.442 206.433 193.371L205.325 193.128C204.714 192.989 204.262 192.767 203.97 192.463C203.68 192.159 203.535 191.774 203.535 191.308C203.535 190.922 203.643 190.584 203.859 190.294C204.075 190.004 204.373 189.778 204.754 189.616C205.134 189.452 205.57 189.369 206.062 189.369C206.769 189.369 207.326 189.523 207.732 189.83C208.139 190.134 208.407 190.541 208.538 191.053ZM214.839 191.053L213.685 191.257C213.636 191.109 213.56 190.969 213.454 190.835C213.352 190.702 213.213 190.592 213.037 190.507C212.861 190.422 212.641 190.379 212.376 190.379C212.016 190.379 211.714 190.46 211.473 190.622C211.231 190.781 211.111 190.987 211.111 191.24C211.111 191.459 211.192 191.635 211.354 191.768C211.516 191.902 211.777 192.011 212.138 192.097L213.177 192.335C213.78 192.474 214.229 192.689 214.524 192.979C214.82 193.268 214.967 193.645 214.967 194.108C214.967 194.5 214.854 194.849 214.626 195.156C214.402 195.46 214.088 195.699 213.685 195.872C213.284 196.045 212.82 196.132 212.291 196.132C211.558 196.132 210.96 195.976 210.497 195.663C210.034 195.348 209.75 194.901 209.645 194.321L210.876 194.134C210.953 194.455 211.111 194.697 211.349 194.862C211.588 195.024 211.899 195.105 212.283 195.105C212.7 195.105 213.034 195.018 213.284 194.845C213.534 194.669 213.659 194.455 213.659 194.202C213.659 193.997 213.582 193.825 213.429 193.686C213.278 193.547 213.047 193.442 212.734 193.371L211.626 193.128C211.016 192.989 210.564 192.767 210.271 192.463C209.981 192.159 209.837 191.774 209.837 191.308C209.837 190.922 209.945 190.584 210.16 190.294C210.376 190.004 210.675 189.778 211.055 189.616C211.436 189.452 211.872 189.369 212.364 189.369C213.071 189.369 213.628 189.523 214.034 189.83C214.44 190.134 214.709 190.541 214.839 191.053ZM220.119 196H218.722L221.862 187.273H223.384L226.524 196H225.127L222.659 188.858H222.591L220.119 196ZM220.354 192.582H224.888V193.69H220.354V192.582ZM231.697 193.286V189.455H232.975V196H231.722V194.866H231.654C231.503 195.216 231.262 195.507 230.93 195.74C230.6 195.97 230.19 196.085 229.698 196.085C229.278 196.085 228.905 195.993 228.582 195.808C228.261 195.621 228.008 195.344 227.823 194.977C227.641 194.611 227.55 194.158 227.55 193.618V189.455H228.824V193.464C228.824 193.911 228.948 194.266 229.195 194.53C229.442 194.794 229.763 194.926 230.158 194.926C230.397 194.926 230.634 194.866 230.87 194.747C231.109 194.628 231.306 194.447 231.462 194.206C231.621 193.964 231.699 193.658 231.697 193.286ZM237.61 189.455V190.477H234.035V189.455H237.61ZM234.994 187.886H236.268V194.078C236.268 194.325 236.305 194.511 236.379 194.636C236.453 194.759 236.548 194.842 236.664 194.888C236.784 194.93 236.913 194.952 237.052 194.952C237.154 194.952 237.244 194.945 237.321 194.93C237.397 194.916 237.457 194.905 237.5 194.896L237.73 195.949C237.656 195.977 237.551 196.006 237.414 196.034C237.278 196.065 237.108 196.082 236.903 196.085C236.568 196.091 236.255 196.031 235.966 195.906C235.676 195.781 235.441 195.588 235.262 195.327C235.083 195.065 234.994 194.737 234.994 194.342V187.886ZM241.575 196.132C240.961 196.132 240.426 195.991 239.968 195.71C239.511 195.429 239.156 195.036 238.903 194.53C238.65 194.024 238.524 193.433 238.524 192.757C238.524 192.078 238.65 191.484 238.903 190.976C239.156 190.467 239.511 190.072 239.968 189.791C240.426 189.51 240.961 189.369 241.575 189.369C242.188 189.369 242.724 189.51 243.181 189.791C243.639 190.072 243.994 190.467 244.247 190.976C244.499 191.484 244.626 192.078 244.626 192.757C244.626 193.433 244.499 194.024 244.247 194.53C243.994 195.036 243.639 195.429 243.181 195.71C242.724 195.991 242.188 196.132 241.575 196.132ZM241.579 195.062C241.977 195.062 242.306 194.957 242.568 194.747C242.829 194.537 243.022 194.257 243.147 193.908C243.275 193.558 243.339 193.173 243.339 192.753C243.339 192.335 243.275 191.952 243.147 191.602C243.022 191.25 242.829 190.967 242.568 190.754C242.306 190.541 241.977 190.435 241.579 190.435C241.178 190.435 240.846 190.541 240.582 190.754C240.32 190.967 240.126 191.25 239.998 191.602C239.873 191.952 239.81 192.335 239.81 192.753C239.81 193.173 239.873 193.558 239.998 193.908C240.126 194.257 240.32 194.537 240.582 194.747C240.846 194.957 241.178 195.062 241.579 195.062ZM245.916 196V189.455H247.139V190.52H247.22C247.356 190.159 247.579 189.878 247.889 189.676C248.199 189.472 248.569 189.369 249.001 189.369C249.439 189.369 249.805 189.472 250.101 189.676C250.399 189.881 250.619 190.162 250.761 190.52H250.829C250.986 190.17 251.234 189.892 251.575 189.685C251.916 189.474 252.322 189.369 252.794 189.369C253.388 189.369 253.872 189.555 254.247 189.928C254.625 190.3 254.814 190.861 254.814 191.611V196H253.54V191.73C253.54 191.287 253.419 190.966 253.177 190.767C252.936 190.568 252.648 190.469 252.312 190.469C251.898 190.469 251.575 190.597 251.345 190.852C251.115 191.105 251 191.43 251 191.828V196H249.73V191.649C249.73 191.294 249.619 191.009 249.398 190.793C249.176 190.577 248.888 190.469 248.532 190.469C248.291 190.469 248.068 190.533 247.863 190.661C247.662 190.786 247.498 190.96 247.373 191.185C247.251 191.409 247.19 191.669 247.19 191.964V196H245.916ZM258.294 196.145C257.88 196.145 257.505 196.068 257.169 195.915C256.834 195.759 256.568 195.533 256.372 195.237C256.179 194.942 256.083 194.58 256.083 194.151C256.083 193.781 256.154 193.477 256.296 193.239C256.438 193 256.63 192.811 256.871 192.672C257.112 192.533 257.382 192.428 257.681 192.357C257.979 192.286 258.283 192.232 258.593 192.195C258.985 192.149 259.303 192.112 259.547 192.084C259.791 192.053 259.969 192.003 260.08 191.935C260.191 191.866 260.246 191.756 260.246 191.602V191.572C260.246 191.2 260.141 190.912 259.931 190.707C259.723 190.503 259.414 190.401 259.002 190.401C258.573 190.401 258.235 190.496 257.987 190.686C257.743 190.874 257.574 191.082 257.48 191.312L256.283 191.04C256.425 190.642 256.632 190.321 256.905 190.077C257.181 189.83 257.497 189.651 257.855 189.54C258.213 189.426 258.59 189.369 258.985 189.369C259.246 189.369 259.523 189.401 259.816 189.463C260.111 189.523 260.387 189.634 260.642 189.795C260.901 189.957 261.112 190.189 261.277 190.49C261.442 190.788 261.524 191.176 261.524 191.653V196H260.28V195.105H260.229C260.147 195.27 260.023 195.432 259.858 195.591C259.693 195.75 259.482 195.882 259.223 195.987C258.965 196.092 258.655 196.145 258.294 196.145ZM258.571 195.122C258.924 195.122 259.225 195.053 259.475 194.913C259.728 194.774 259.919 194.592 260.05 194.368C260.184 194.141 260.25 193.898 260.25 193.639V192.795C260.205 192.841 260.117 192.884 259.986 192.923C259.858 192.96 259.712 192.993 259.547 193.021C259.382 193.047 259.222 193.071 259.066 193.094C258.909 193.114 258.779 193.131 258.674 193.145C258.426 193.176 258.201 193.229 257.996 193.303C257.794 193.376 257.632 193.483 257.51 193.622C257.391 193.759 257.331 193.94 257.331 194.168C257.331 194.483 257.448 194.722 257.681 194.884C257.914 195.043 258.211 195.122 258.571 195.122ZM266.145 189.455V190.477H262.57V189.455H266.145ZM263.528 187.886H264.803V194.078C264.803 194.325 264.84 194.511 264.913 194.636C264.987 194.759 265.082 194.842 265.199 194.888C265.318 194.93 265.447 194.952 265.587 194.952C265.689 194.952 265.778 194.945 265.855 194.93C265.932 194.916 265.992 194.905 266.034 194.896L266.264 195.949C266.19 195.977 266.085 196.006 265.949 196.034C265.813 196.065 265.642 196.082 265.438 196.085C265.102 196.091 264.79 196.031 264.5 195.906C264.21 195.781 263.976 195.588 263.797 195.327C263.618 195.065 263.528 194.737 263.528 194.342V187.886ZM267.422 196V189.455H268.697V196H267.422ZM268.066 188.445C267.844 188.445 267.654 188.371 267.495 188.223C267.339 188.072 267.26 187.893 267.26 187.686C267.26 187.476 267.339 187.297 267.495 187.149C267.654 186.999 267.844 186.923 268.066 186.923C268.287 186.923 268.476 186.999 268.633 187.149C268.792 187.297 268.871 187.476 268.871 187.686C268.871 187.893 268.792 188.072 268.633 188.223C268.476 188.371 268.287 188.445 268.066 188.445ZM273.036 196.132C272.422 196.132 271.887 195.991 271.429 195.71C270.972 195.429 270.617 195.036 270.364 194.53C270.111 194.024 269.985 193.433 269.985 192.757C269.985 192.078 270.111 191.484 270.364 190.976C270.617 190.467 270.972 190.072 271.429 189.791C271.887 189.51 272.422 189.369 273.036 189.369C273.649 189.369 274.185 189.51 274.642 189.791C275.1 190.072 275.455 190.467 275.708 190.976C275.96 191.484 276.087 192.078 276.087 192.757C276.087 193.433 275.96 194.024 275.708 194.53C275.455 195.036 275.1 195.429 274.642 195.71C274.185 195.991 273.649 196.132 273.036 196.132ZM273.04 195.062C273.438 195.062 273.767 194.957 274.029 194.747C274.29 194.537 274.483 194.257 274.608 193.908C274.736 193.558 274.8 193.173 274.8 192.753C274.8 192.335 274.736 191.952 274.608 191.602C274.483 191.25 274.29 190.967 274.029 190.754C273.767 190.541 273.438 190.435 273.04 190.435C272.639 190.435 272.307 190.541 272.043 190.754C271.781 190.967 271.587 191.25 271.459 191.602C271.334 191.952 271.272 192.335 271.272 192.753C271.272 193.173 271.334 193.558 271.459 193.908C271.587 194.257 271.781 194.537 272.043 194.747C272.307 194.957 272.639 195.062 273.04 195.062ZM278.651 192.114V196H277.377V189.455H278.6V190.52H278.681C278.832 190.173 279.067 189.895 279.388 189.685C279.712 189.474 280.12 189.369 280.611 189.369C281.058 189.369 281.448 189.463 281.783 189.651C282.119 189.835 282.379 190.111 282.563 190.477C282.748 190.844 282.84 191.297 282.84 191.837V196H281.566V191.99C281.566 191.516 281.442 191.145 281.195 190.878C280.948 190.608 280.609 190.473 280.177 190.473C279.881 190.473 279.619 190.537 279.388 190.665C279.161 190.793 278.981 190.98 278.847 191.227C278.717 191.472 278.651 191.767 278.651 192.114Z" fill="white"/>
</g>
</g>
<g filter="url(#filter16_d_876_605)">
<rect x="16" y="224" width="174" height="40" rx="20" fill="url(#paint8_linear_876_605)" shape-rendering="crispEdges"/>
<rect x="16.25" y="224.25" width="173.5" height="39.5" rx="19.75" stroke="black" stroke-opacity="0.12" stroke-width="0.5" shape-rendering="crispEdges"/>
<g filter="url(#filter17_d_876_605)">
<path d="M51.0051 248H49.6074L52.748 239.273H54.2693L57.4099 248H56.0122L53.5449 240.858H53.4767L51.0051 248ZM51.2395 244.582H55.7736V245.69H51.2395V244.582ZM61.0876 248.132C60.4541 248.132 59.9086 247.989 59.4512 247.702C58.9967 247.412 58.6473 247.013 58.4029 246.504C58.1586 245.996 58.0365 245.413 58.0365 244.757C58.0365 244.092 58.1615 243.506 58.4115 242.997C58.6615 242.486 59.0137 242.087 59.4683 241.8C59.9228 241.513 60.4583 241.369 61.0748 241.369C61.572 241.369 62.0152 241.462 62.4044 241.646C62.7936 241.828 63.1075 242.084 63.3461 242.413C63.5876 242.743 63.7311 243.128 63.7765 243.568H62.5365C62.4683 243.261 62.312 242.997 62.0677 242.776C61.8262 242.554 61.5024 242.443 61.0961 242.443C60.741 242.443 60.4299 242.537 60.1629 242.724C59.8987 242.909 59.6927 243.173 59.545 243.517C59.3973 243.858 59.3234 244.261 59.3234 244.727C59.3234 245.205 59.3958 245.616 59.5407 245.963C59.6856 246.31 59.8902 246.578 60.1544 246.768C60.4214 246.959 60.7353 247.054 61.0961 247.054C61.3376 247.054 61.5564 247.01 61.7524 246.922C61.9512 246.831 62.1174 246.702 62.251 246.534C62.3873 246.366 62.4825 246.165 62.5365 245.929H63.7765C63.7311 246.352 63.5933 246.73 63.3632 247.062C63.1331 247.395 62.8248 247.656 62.4385 247.847C62.0549 248.037 61.6047 248.132 61.0876 248.132ZM68.0625 241.455V242.477H64.4872V241.455H68.0625ZM65.446 239.886H66.7202V246.078C66.7202 246.325 66.7571 246.511 66.831 246.636C66.9048 246.759 67 246.842 67.1165 246.888C67.2358 246.93 67.3651 246.952 67.5043 246.952C67.6065 246.952 67.696 246.945 67.7727 246.93C67.8494 246.916 67.9091 246.905 67.9517 246.896L68.1818 247.949C68.1079 247.977 68.0028 248.006 67.8665 248.034C67.7301 248.065 67.5597 248.082 67.3551 248.085C67.0199 248.091 66.7074 248.031 66.4176 247.906C66.1278 247.781 65.8935 247.588 65.7145 247.327C65.5355 247.065 65.446 246.737 65.446 246.342V239.886ZM69.3399 248V241.455H70.6141V248H69.3399ZM69.9834 240.445C69.7618 240.445 69.5715 240.371 69.4124 240.223C69.2561 240.072 69.178 239.893 69.178 239.686C69.178 239.476 69.2561 239.297 69.4124 239.149C69.5715 238.999 69.7618 238.923 69.9834 238.923C70.205 238.923 70.3939 238.999 70.5502 239.149C70.7093 239.297 70.7888 239.476 70.7888 239.686C70.7888 239.893 70.7093 240.072 70.5502 240.223C70.3939 240.371 70.205 240.445 69.9834 240.445ZM74.9533 248.132C74.3397 248.132 73.8042 247.991 73.3468 247.71C72.8894 247.429 72.5343 247.036 72.2814 246.53C72.0286 246.024 71.9022 245.433 71.9022 244.757C71.9022 244.078 72.0286 243.484 72.2814 242.976C72.5343 242.467 72.8894 242.072 73.3468 241.791C73.8042 241.51 74.3397 241.369 74.9533 241.369C75.567 241.369 76.1025 241.51 76.5599 241.791C77.0172 242.072 77.3724 242.467 77.6252 242.976C77.878 243.484 78.0045 244.078 78.0045 244.757C78.0045 245.433 77.878 246.024 77.6252 246.53C77.3724 247.036 77.0172 247.429 76.5599 247.71C76.1025 247.991 75.567 248.132 74.9533 248.132ZM74.9576 247.062C75.3553 247.062 75.6849 246.957 75.9462 246.747C76.2076 246.537 76.4008 246.257 76.5258 245.908C76.6536 245.558 76.7175 245.173 76.7175 244.753C76.7175 244.335 76.6536 243.952 76.5258 243.602C76.4008 243.25 76.2076 242.967 75.9462 242.754C75.6849 242.541 75.3553 242.435 74.9576 242.435C74.557 242.435 74.2246 242.541 73.9604 242.754C73.6991 242.967 73.5045 243.25 73.3766 243.602C73.2516 243.952 73.1891 244.335 73.1891 244.753C73.1891 245.173 73.2516 245.558 73.3766 245.908C73.5045 246.257 73.6991 246.537 73.9604 246.747C74.2246 246.957 74.557 247.062 74.9576 247.062ZM80.5688 244.114V248H79.2947V241.455H80.5177V242.52H80.5987C80.7492 242.173 80.985 241.895 81.3061 241.685C81.6299 241.474 82.0376 241.369 82.5291 241.369C82.9751 241.369 83.3657 241.463 83.7009 241.651C84.0362 241.835 84.2961 242.111 84.4808 242.477C84.6654 242.844 84.7578 243.297 84.7578 243.837V248H83.4836V243.99C83.4836 243.516 83.36 243.145 83.1129 242.878C82.8657 242.608 82.5262 242.473 82.0944 242.473C81.799 242.473 81.5362 242.537 81.3061 242.665C81.0788 242.793 80.8984 242.98 80.7649 243.227C80.6342 243.472 80.5688 243.767 80.5688 244.114ZM88.2394 248.145C87.8246 248.145 87.4496 248.068 87.1144 247.915C86.7792 247.759 86.5135 247.533 86.3175 247.237C86.1243 246.942 86.0277 246.58 86.0277 246.151C86.0277 245.781 86.0988 245.477 86.2408 245.239C86.3829 245 86.5746 244.811 86.8161 244.672C87.0576 244.533 87.3275 244.428 87.6258 244.357C87.9241 244.286 88.228 244.232 88.5377 244.195C88.9297 244.149 89.2479 244.112 89.4922 244.084C89.7366 244.053 89.9141 244.003 90.0249 243.935C90.1357 243.866 90.1911 243.756 90.1911 243.602V243.572C90.1911 243.2 90.086 242.912 89.8758 242.707C89.6684 242.503 89.3587 242.401 88.9468 242.401C88.5178 242.401 88.1797 242.496 87.9326 242.686C87.6883 242.874 87.5192 243.082 87.4255 243.312L86.228 243.04C86.3701 242.642 86.5775 242.321 86.8502 242.077C87.1258 241.83 87.4425 241.651 87.8005 241.54C88.1584 241.426 88.5348 241.369 88.9297 241.369C89.1911 241.369 89.4681 241.401 89.7607 241.463C90.0562 241.523 90.3317 241.634 90.5874 241.795C90.8459 241.957 91.0576 242.189 91.2223 242.49C91.3871 242.788 91.4695 243.176 91.4695 243.653V248H90.2252V247.105H90.1741C90.0917 247.27 89.9681 247.432 89.8033 247.591C89.6385 247.75 89.4269 247.882 89.1684 247.987C88.9098 248.092 88.6002 248.145 88.2394 248.145ZM88.5164 247.122C88.8687 247.122 89.1698 247.053 89.4198 246.913C89.6726 246.774 89.8644 246.592 89.9951 246.368C90.1286 246.141 90.1954 245.898 90.1954 245.639V244.795C90.1499 244.841 90.0618 244.884 89.9312 244.923C89.8033 244.96 89.657 244.993 89.4922 245.021C89.3275 245.047 89.167 245.071 89.0107 245.094C88.8545 245.114 88.7238 245.131 88.6187 245.145C88.3715 245.176 88.1456 245.229 87.9411 245.303C87.7394 245.376 87.5775 245.483 87.4553 245.622C87.336 245.759 87.2763 245.94 87.2763 246.168C87.2763 246.483 87.3928 246.722 87.6258 246.884C87.8587 247.043 88.1556 247.122 88.5164 247.122ZM93.1369 248V239.273H94.411V242.516H94.4877C94.5616 242.379 94.6681 242.222 94.8073 242.043C94.9465 241.864 95.1397 241.707 95.3869 241.574C95.634 241.438 95.9607 241.369 96.367 241.369C96.8954 241.369 97.367 241.503 97.7818 241.77C98.1965 242.037 98.5218 242.422 98.7576 242.925C98.9962 243.428 99.1156 244.033 99.1156 244.74C99.1156 245.447 98.9977 246.054 98.7619 246.56C98.5261 247.062 98.2022 247.45 97.7903 247.723C97.3783 247.993 96.9082 248.128 96.3798 248.128C95.982 248.128 95.6568 248.061 95.4039 247.928C95.1539 247.794 94.9579 247.638 94.8158 247.459C94.6738 247.28 94.5644 247.121 94.4877 246.982H94.3812V248H93.1369ZM94.3854 244.727C94.3854 245.187 94.4522 245.591 94.5857 245.938C94.7193 246.284 94.9124 246.555 95.1653 246.751C95.4181 246.945 95.7278 247.041 96.0943 247.041C96.4749 247.041 96.7931 246.94 97.0488 246.739C97.3045 246.534 97.4977 246.257 97.6283 245.908C97.7619 245.558 97.8286 245.165 97.8286 244.727C97.8286 244.295 97.7633 243.908 97.6326 243.564C97.5048 243.22 97.3116 242.949 97.0531 242.75C96.7974 242.551 96.4778 242.452 96.0943 242.452C95.7249 242.452 95.4124 242.547 95.1568 242.737C94.9039 242.928 94.7122 243.193 94.5815 243.534C94.4508 243.875 94.3854 244.273 94.3854 244.727ZM101.688 239.273V248H100.414V239.273H101.688ZM106.092 248.132C105.447 248.132 104.891 247.994 104.425 247.719C103.962 247.44 103.604 247.05 103.352 246.547C103.102 246.041 102.977 245.449 102.977 244.77C102.977 244.099 103.102 243.509 103.352 242.997C103.604 242.486 103.957 242.087 104.408 241.8C104.863 241.513 105.394 241.369 106.002 241.369C106.371 241.369 106.729 241.43 107.076 241.553C107.423 241.675 107.734 241.866 108.009 242.128C108.285 242.389 108.502 242.729 108.661 243.146C108.82 243.561 108.9 244.065 108.9 244.659V245.111H103.697V244.156H107.651C107.651 243.821 107.583 243.524 107.447 243.266C107.31 243.004 107.119 242.798 106.871 242.648C106.627 242.497 106.34 242.422 106.011 242.422C105.653 242.422 105.34 242.51 105.073 242.686C104.809 242.859 104.604 243.087 104.46 243.368C104.317 243.646 104.246 243.949 104.246 244.276V245.021C104.246 245.459 104.323 245.831 104.477 246.138C104.633 246.445 104.85 246.679 105.129 246.841C105.407 247 105.732 247.08 106.104 247.08C106.346 247.08 106.566 247.045 106.765 246.977C106.964 246.906 107.136 246.801 107.281 246.662C107.425 246.523 107.536 246.351 107.613 246.146L108.819 246.364C108.722 246.719 108.549 247.03 108.299 247.297C108.052 247.561 107.741 247.767 107.366 247.915C106.994 248.06 106.569 248.132 106.092 248.132ZM114.644 239.273V248H113.328V239.273H114.644ZM117.602 244.114V248H116.328V241.455H117.551V242.52H117.632C117.782 242.173 118.018 241.895 118.339 241.685C118.663 241.474 119.071 241.369 119.562 241.369C120.008 241.369 120.399 241.463 120.734 241.651C121.069 241.835 121.329 242.111 121.514 242.477C121.698 242.844 121.791 243.297 121.791 243.837V248H120.517V243.99C120.517 243.516 120.393 243.145 120.146 242.878C119.899 242.608 119.559 242.473 119.127 242.473C118.832 242.473 118.569 242.537 118.339 242.665C118.112 242.793 117.931 242.98 117.798 243.227C117.667 243.472 117.602 243.767 117.602 244.114ZM128.272 243.053L127.118 243.257C127.069 243.109 126.993 242.969 126.887 242.835C126.785 242.702 126.646 242.592 126.47 242.507C126.294 242.422 126.074 242.379 125.809 242.379C125.449 242.379 125.147 242.46 124.906 242.622C124.664 242.781 124.544 242.987 124.544 243.24C124.544 243.459 124.625 243.635 124.787 243.768C124.949 243.902 125.21 244.011 125.571 244.097L126.61 244.335C127.213 244.474 127.662 244.689 127.957 244.979C128.253 245.268 128.4 245.645 128.4 246.108C128.4 246.5 128.287 246.849 128.059 247.156C127.835 247.46 127.521 247.699 127.118 247.872C126.717 248.045 126.253 248.132 125.724 248.132C124.991 248.132 124.393 247.976 123.93 247.663C123.467 247.348 123.183 246.901 123.078 246.321L124.309 246.134C124.386 246.455 124.544 246.697 124.782 246.862C125.021 247.024 125.332 247.105 125.716 247.105C126.133 247.105 126.467 247.018 126.717 246.845C126.967 246.669 127.092 246.455 127.092 246.202C127.092 245.997 127.015 245.825 126.862 245.686C126.711 245.547 126.48 245.442 126.167 245.371L125.059 245.128C124.449 244.989 123.997 244.767 123.704 244.463C123.414 244.159 123.27 243.774 123.27 243.308C123.27 242.922 123.378 242.584 123.593 242.294C123.809 242.004 124.108 241.778 124.488 241.616C124.869 241.452 125.305 241.369 125.797 241.369C126.504 241.369 127.061 241.523 127.467 241.83C127.873 242.134 128.142 242.541 128.272 243.053ZM129.669 248V241.455H130.943V248H129.669ZM130.313 240.445C130.091 240.445 129.901 240.371 129.742 240.223C129.585 240.072 129.507 239.893 129.507 239.686C129.507 239.476 129.585 239.297 129.742 239.149C129.901 238.999 130.091 238.923 130.313 238.923C130.534 238.923 130.723 238.999 130.879 239.149C131.039 239.297 131.118 239.476 131.118 239.686C131.118 239.893 131.039 240.072 130.879 240.223C130.723 240.371 130.534 240.445 130.313 240.445ZM135.27 250.591C134.75 250.591 134.302 250.523 133.927 250.386C133.555 250.25 133.251 250.07 133.016 249.845C132.78 249.621 132.604 249.375 132.487 249.108L133.582 248.656C133.659 248.781 133.761 248.913 133.889 249.053C134.02 249.195 134.196 249.315 134.418 249.415C134.642 249.514 134.93 249.564 135.283 249.564C135.766 249.564 136.165 249.446 136.48 249.21C136.795 248.977 136.953 248.605 136.953 248.094V246.807H136.872C136.795 246.946 136.685 247.101 136.54 247.271C136.398 247.442 136.202 247.589 135.952 247.714C135.702 247.839 135.376 247.902 134.976 247.902C134.459 247.902 133.993 247.781 133.578 247.54C133.166 247.295 132.839 246.936 132.598 246.462C132.359 245.984 132.24 245.398 132.24 244.702C132.24 244.006 132.358 243.409 132.594 242.912C132.832 242.415 133.159 242.034 133.574 241.77C133.989 241.503 134.459 241.369 134.984 241.369C135.391 241.369 135.719 241.438 135.969 241.574C136.219 241.707 136.413 241.864 136.552 242.043C136.694 242.222 136.804 242.379 136.881 242.516H136.974V241.455H138.223V248.145C138.223 248.707 138.092 249.169 137.831 249.53C137.569 249.891 137.216 250.158 136.77 250.331C136.327 250.504 135.827 250.591 135.27 250.591ZM135.257 246.845C135.623 246.845 135.933 246.76 136.186 246.589C136.442 246.416 136.635 246.169 136.766 245.848C136.899 245.524 136.966 245.136 136.966 244.685C136.966 244.244 136.9 243.857 136.77 243.521C136.639 243.186 136.447 242.925 136.194 242.737C135.942 242.547 135.629 242.452 135.257 242.452C134.873 242.452 134.554 242.551 134.298 242.75C134.043 242.946 133.849 243.213 133.719 243.551C133.591 243.889 133.527 244.267 133.527 244.685C133.527 245.114 133.592 245.49 133.723 245.814C133.854 246.138 134.047 246.391 134.302 246.572C134.561 246.754 134.879 246.845 135.257 246.845ZM141.074 244.114V248H139.8V239.273H141.057V242.52H141.138C141.291 242.168 141.526 241.888 141.841 241.68C142.156 241.473 142.568 241.369 143.077 241.369C143.526 241.369 143.918 241.462 144.253 241.646C144.591 241.831 144.852 242.107 145.037 242.473C145.224 242.837 145.318 243.291 145.318 243.837V248H144.044V243.99C144.044 243.51 143.92 243.138 143.673 242.874C143.426 242.607 143.082 242.473 142.642 242.473C142.341 242.473 142.071 242.537 141.832 242.665C141.597 242.793 141.411 242.98 141.274 243.227C141.141 243.472 141.074 243.767 141.074 244.114ZM149.942 241.455V242.477H146.367V241.455H149.942ZM147.325 239.886H148.6V246.078C148.6 246.325 148.636 246.511 148.71 246.636C148.784 246.759 148.879 246.842 148.996 246.888C149.115 246.93 149.244 246.952 149.384 246.952C149.486 246.952 149.575 246.945 149.652 246.93C149.729 246.916 149.788 246.905 149.831 246.896L150.061 247.949C149.987 247.977 149.882 248.006 149.746 248.034C149.609 248.065 149.439 248.082 149.234 248.085C148.899 248.091 148.587 248.031 148.297 247.906C148.007 247.781 147.773 247.588 147.594 247.327C147.415 247.065 147.325 246.737 147.325 246.342V239.886ZM156.019 243.053L154.864 243.257C154.816 243.109 154.739 242.969 154.634 242.835C154.531 242.702 154.392 242.592 154.216 242.507C154.04 242.422 153.82 242.379 153.556 242.379C153.195 242.379 152.894 242.46 152.652 242.622C152.411 242.781 152.29 242.987 152.29 243.24C152.29 243.459 152.371 243.635 152.533 243.768C152.695 243.902 152.956 244.011 153.317 244.097L154.357 244.335C154.959 244.474 155.408 244.689 155.703 244.979C155.999 245.268 156.147 245.645 156.147 246.108C156.147 246.5 156.033 246.849 155.806 247.156C155.581 247.46 155.267 247.699 154.864 247.872C154.463 248.045 153.999 248.132 153.47 248.132C152.737 248.132 152.139 247.976 151.676 247.663C151.213 247.348 150.929 246.901 150.824 246.321L152.056 246.134C152.132 246.455 152.29 246.697 152.529 246.862C152.767 247.024 153.078 247.105 153.462 247.105C153.879 247.105 154.213 247.018 154.463 246.845C154.713 246.669 154.838 246.455 154.838 246.202C154.838 245.997 154.762 245.825 154.608 245.686C154.458 245.547 154.226 245.442 153.914 245.371L152.806 245.128C152.195 244.989 151.743 244.767 151.45 244.463C151.161 244.159 151.016 243.774 151.016 243.308C151.016 242.922 151.124 242.584 151.34 242.294C151.556 242.004 151.854 241.778 152.235 241.616C152.615 241.452 153.051 241.369 153.543 241.369C154.25 241.369 154.807 241.523 155.213 241.83C155.62 242.134 155.888 242.541 156.019 243.053Z" fill="white"/>
</g>
</g>
<g filter="url(#filter18_d_876_605)">
<path d="M199 244C199 232.954 207.954 224 219 224C230.046 224 239 232.954 239 244C239 255.046 230.046 264 219 264C207.954 264 199 255.046 199 244Z" fill="url(#paint9_linear_876_605)"/>
<path d="M219 224.228C229.92 224.228 238.772 233.08 238.772 244C238.772 254.92 229.92 263.772 219 263.772C208.08 263.772 199.228 254.92 199.228 244C199.228 233.08 208.08 224.228 219 224.228Z" stroke="black" stroke-opacity="0.12" stroke-width="0.454547"/>
<g filter="url(#filter19_d_876_605)">
<path d="M219 237.182C220.769 238.748 223.079 239.563 225.439 239.455C225.783 240.624 225.888 241.85 225.748 243.06C225.609 244.271 225.227 245.441 224.627 246.501C224.026 247.561 223.218 248.489 222.252 249.231C221.285 249.973 220.179 250.512 219 250.818C217.82 250.512 216.715 249.973 215.748 249.231C214.781 248.489 213.974 247.561 213.373 246.501C212.772 245.441 212.391 244.271 212.251 243.06C212.112 241.85 212.217 240.624 212.56 239.455C214.921 239.563 217.23 238.748 219 237.182Z" stroke="white" stroke-width="1.51515" stroke-linecap="round" stroke-linejoin="round"/>
<path d="M212.938 245.515L218.998 243.242L225.059 245.515" stroke="white" stroke-width="1.51515" stroke-linecap="round" stroke-linejoin="round"/>
</g>
</g>
<defs>
<filter id="filter0_d_876_605" x="13.4" y="15.4" width="179.2" height="45.2" filterUnits="userSpaceOnUse" color-interpolation-filters="sRGB">
<feFlood flood-opacity="0" result="BackgroundImageFix"/>
<feColorMatrix in="SourceAlpha" type="matrix" values="0 0 0 0 0 0 0 0 0 0 0 0 0 0 0 0 0 0 127 0" result="hardAlpha"/>
<feOffset dy="2"/>
<feGaussianBlur stdDeviation="1.3"/>
<feComposite in2="hardAlpha" operator="out"/>
<feColorMatrix type="matrix" values="0 0 0 0 0.0538198 0 0 0 0 0.499102 0 0 0 0 0.453665 0 0 0 0.08 0"/>
<feBlend mode="normal" in2="BackgroundImageFix" result="effect1_dropShadow_876_605"/>
<feBlend mode="normal" in="SourceGraphic" in2="effect1_dropShadow_876_605" result="shape"/>
</filter>
<filter id="filter1_d_876_605" x="48.4062" y="27.4233" width="109.588" height="22.6676" filterUnits="userSpaceOnUse" color-interpolation-filters="sRGB">
<feFlood flood-opacity="0" result="BackgroundImageFix"/>
<feColorMatrix in="SourceAlpha" type="matrix" values="0 0 0 0 0 0 0 0 0 0 0 0 0 0 0 0 0 0 127 0" result="hardAlpha"/>
<feOffset dy="2"/>
<feGaussianBlur stdDeviation="2.75"/>
<feComposite in2="hardAlpha" operator="out"/>
<feColorMatrix type="matrix" values="0 0 0 0 0 0 0 0 0 0 0 0 0 0 0 0 0 0 0.11 0"/>
<feBlend mode="normal" in2="BackgroundImageFix" result="effect1_dropShadow_876_605"/>
<feBlend mode="normal" in="SourceGraphic" in2="effect1_dropShadow_876_605" result="shape"/>
</filter>
<filter id="filter2_d_876_605" x="196.636" y="15.4545" width="44.7273" height="44.7273" filterUnits="userSpaceOnUse" color-interpolation-filters="sRGB">
<feFlood flood-opacity="0" result="BackgroundImageFix"/>
<feColorMatrix in="SourceAlpha" type="matrix" values="0 0 0 0 0 0 0 0 0 0 0 0 0 0 0 0 0 0 127 0" result="hardAlpha"/>
<feOffset dy="1.81818"/>
<feGaussianBlur stdDeviation="1.18181"/>
<feComposite in2="hardAlpha" operator="out"/>
<feColorMatrix type="matrix" values="0 0 0 0 0.0538198 0 0 0 0 0.499102 0 0 0 0 0.453665 0 0 0 0.08 0"/>
<feBlend mode="normal" in2="BackgroundImageFix" result="effect1_dropShadow_876_605"/>
<feBlend mode="normal" in="SourceGraphic" in2="effect1_dropShadow_876_605" result="shape"/>
</filter>
<filter id="filter3_d_876_605" x="205.999" y="24.8182" width="25.9998" height="26" filterUnits="userSpaceOnUse" color-interpolation-filters="sRGB">
<feFlood flood-opacity="0" result="BackgroundImageFix"/>
<feColorMatrix in="SourceAlpha" type="matrix" values="0 0 0 0 0 0 0 0 0 0 0 0 0 0 0 0 0 0 127 0" result="hardAlpha"/>
<feOffset dy="1.81818"/>
<feGaussianBlur stdDeviation="1.95454"/>
<feComposite in2="hardAlpha" operator="out"/>
<feColorMatrix type="matrix" values="0 0 0 0 0 0 0 0 0 0 0 0 0 0 0 0 0 0 0.23 0"/>
<feBlend mode="normal" in2="BackgroundImageFix" result="effect1_dropShadow_876_605"/>
<feBlend mode="normal" in="SourceGraphic" in2="effect1_dropShadow_876_605" result="shape"/>
</filter>
<filter id="filter4_d_876_605" x="83.6364" y="67.4545" width="44.7273" height="44.7273" filterUnits="userSpaceOnUse" color-interpolation-filters="sRGB">
<feFlood flood-opacity="0" result="BackgroundImageFix"/>
<feColorMatrix in="SourceAlpha" type="matrix" values="0 0 0 0 0 0 0 0 0 0 0 0 0 0 0 0 0 0 127 0" result="hardAlpha"/>
<feOffset dy="1.81818"/>
<feGaussianBlur stdDeviation="1.18182"/>
<feComposite in2="hardAlpha" operator="out"/>
<feColorMatrix type="matrix" values="0 0 0 0 0.0538198 0 0 0 0 0.499102 0 0 0 0 0.453665 0 0 0 0.08 0"/>
<feBlend mode="normal" in2="BackgroundImageFix" result="effect1_dropShadow_876_605"/>
<feBlend mode="normal" in="SourceGraphic" in2="effect1_dropShadow_876_605" result="shape"/>
</filter>
<filter id="filter5_d_876_605" x="92.9991" y="76.8181" width="25.9998" height="25.9999" filterUnits="userSpaceOnUse" color-interpolation-filters="sRGB">
<feFlood flood-opacity="0" result="BackgroundImageFix"/>
<feColorMatrix in="SourceAlpha" type="matrix" values="0 0 0 0 0 0 0 0 0 0 0 0 0 0 0 0 0 0 127 0" result="hardAlpha"/>
<feOffset dy="1.81818"/>
<feGaussianBlur stdDeviation="1.95455"/>
<feComposite in2="hardAlpha" operator="out"/>
<feColorMatrix type="matrix" values="0 0 0 0 0 0 0 0 0 0 0 0 0 0 0 0 0 0 0.23 0"/>
<feBlend mode="normal" in2="BackgroundImageFix" result="effect1_dropShadow_876_605"/>
<feBlend mode="normal" in="SourceGraphic" in2="effect1_dropShadow_876_605" result="shape"/>
</filter>
<filter id="filter6_d_876_605" x="132.4" y="67.4" width="189.2" height="45.2" filterUnits="userSpaceOnUse" color-interpolation-filters="sRGB">
<feFlood flood-opacity="0" result="BackgroundImageFix"/>
<feColorMatrix in="SourceAlpha" type="matrix" values="0 0 0 0 0 0 0 0 0 0 0 0 0 0 0 0 0 0 127 0" result="hardAlpha"/>
<feOffset dy="2"/>
<feGaussianBlur stdDeviation="1.3"/>
<feComposite in2="hardAlpha" operator="out"/>
<feColorMatrix type="matrix" values="0 0 0 0 0.0538198 0 0 0 0 0.499102 0 0 0 0 0.453665 0 0 0 0.08 0"/>
<feBlend mode="normal" in2="BackgroundImageFix" result="effect1_dropShadow_876_605"/>
<feBlend mode="normal" in="SourceGraphic" in2="effect1_dropShadow_876_605" result="shape"/>
</filter>
<filter id="filter7_d_876_605" x="168.35" y="79.4233" width="116.746" height="22.5312" filterUnits="userSpaceOnUse" color-interpolation-filters="sRGB">
<feFlood flood-opacity="0" result="BackgroundImageFix"/>
<feColorMatrix in="SourceAlpha" type="matrix" values="0 0 0 0 0 0 0 0 0 0 0 0 0 0 0 0 0 0 127 0" result="hardAlpha"/>
<feOffset dy="2"/>
<feGaussianBlur stdDeviation="2.75"/>
<feComposite in2="hardAlpha" operator="out"/>
<feColorMatrix type="matrix" values="0 0 0 0 0 0 0 0 0 0 0 0 0 0 0 0 0 0 0.11 0"/>
<feBlend mode="normal" in2="BackgroundImageFix" result="effect1_dropShadow_876_605"/>
<feBlend mode="normal" in="SourceGraphic" in2="effect1_dropShadow_876_605" result="shape"/>
</filter>
<filter id="filter8_d_876_605" x="13.4" y="119.4" width="191.2" height="45.2" filterUnits="userSpaceOnUse" color-interpolation-filters="sRGB">
<feFlood flood-opacity="0" result="BackgroundImageFix"/>
<feColorMatrix in="SourceAlpha" type="matrix" values="0 0 0 0 0 0 0 0 0 0 0 0 0 0 0 0 0 0 127 0" result="hardAlpha"/>
<feOffset dy="2"/>
<feGaussianBlur stdDeviation="1.3"/>
<feComposite in2="hardAlpha" operator="out"/>
<feColorMatrix type="matrix" values="0 0 0 0 0.0538198 0 0 0 0 0.499102 0 0 0 0 0.453665 0 0 0 0.08 0"/>
<feBlend mode="normal" in2="BackgroundImageFix" result="effect1_dropShadow_876_605"/>
<feBlend mode="normal" in="SourceGraphic" in2="effect1_dropShadow_876_605" result="shape"/>
</filter>
<filter id="filter9_d_876_605" x="48.9473" y="131.423" width="120.52" height="22.5312" filterUnits="userSpaceOnUse" color-interpolation-filters="sRGB">
<feFlood flood-opacity="0" result="BackgroundImageFix"/>
<feColorMatrix in="SourceAlpha" type="matrix" values="0 0 0 0 0 0 0 0 0 0 0 0 0 0 0 0 0 0 127 0" result="hardAlpha"/>
<feOffset dy="2"/>
<feGaussianBlur stdDeviation="2.75"/>
<feComposite in2="hardAlpha" operator="out"/>
<feColorMatrix type="matrix" values="0 0 0 0 0 0 0 0 0 0 0 0 0 0 0 0 0 0 0.11 0"/>
<feBlend mode="normal" in2="BackgroundImageFix" result="effect1_dropShadow_876_605"/>
<feBlend mode="normal" in="SourceGraphic" in2="effect1_dropShadow_876_605" result="shape"/>
</filter>
<filter id="filter10_d_876_605" x="208.636" y="119.455" width="44.7273" height="44.7273" filterUnits="userSpaceOnUse" color-interpolation-filters="sRGB">
<feFlood flood-opacity="0" result="BackgroundImageFix"/>
<feColorMatrix in="SourceAlpha" type="matrix" values="0 0 0 0 0 0 0 0 0 0 0 0 0 0 0 0 0 0 127 0" result="hardAlpha"/>
<feOffset dy="1.8182"/>
<feGaussianBlur stdDeviation="1.18183"/>
<feComposite in2="hardAlpha" operator="out"/>
<feColorMatrix type="matrix" values="0 0 0 0 0.0538198 0 0 0 0 0.499102 0 0 0 0 0.453665 0 0 0 0.08 0"/>
<feBlend mode="normal" in2="BackgroundImageFix" result="effect1_dropShadow_876_605"/>
<feBlend mode="normal" in="SourceGraphic" in2="effect1_dropShadow_876_605" result="shape"/>
</filter>
<filter id="filter11_d_876_605" x="217.999" y="128.818" width="25.9999" height="25.9999" filterUnits="userSpaceOnUse" color-interpolation-filters="sRGB">
<feFlood flood-opacity="0" result="BackgroundImageFix"/>
<feColorMatrix in="SourceAlpha" type="matrix" values="0 0 0 0 0 0 0 0 0 0 0 0 0 0 0 0 0 0 127 0" result="hardAlpha"/>
<feOffset dy="1.8182"/>
<feGaussianBlur stdDeviation="1.95456"/>
<feComposite in2="hardAlpha" operator="out"/>
<feColorMatrix type="matrix" values="0 0 0 0 0 0 0 0 0 0 0 0 0 0 0 0 0 0 0.23 0"/>
<feBlend mode="normal" in2="BackgroundImageFix" result="effect1_dropShadow_876_605"/>
<feBlend mode="normal" in="SourceGraphic" in2="effect1_dropShadow_876_605" result="shape"/>
</filter>
<filter id="filter12_d_876_605" x="83.6364" y="171.455" width="44.7273" height="44.7273" filterUnits="userSpaceOnUse" color-interpolation-filters="sRGB">
<feFlood flood-opacity="0" result="BackgroundImageFix"/>
<feColorMatrix in="SourceAlpha" type="matrix" values="0 0 0 0 0 0 0 0 0 0 0 0 0 0 0 0 0 0 127 0" result="hardAlpha"/>
<feOffset dy="1.81819"/>
<feGaussianBlur stdDeviation="1.18182"/>
<feComposite in2="hardAlpha" operator="out"/>
<feColorMatrix type="matrix" values="0 0 0 0 0.0538198 0 0 0 0 0.499102 0 0 0 0 0.453665 0 0 0 0.08 0"/>
<feBlend mode="normal" in2="BackgroundImageFix" result="effect1_dropShadow_876_605"/>
<feBlend mode="normal" in="SourceGraphic" in2="effect1_dropShadow_876_605" result="shape"/>
</filter>
<filter id="filter13_d_876_605" x="92.9991" y="180.818" width="25.9998" height="26" filterUnits="userSpaceOnUse" color-interpolation-filters="sRGB">
<feFlood flood-opacity="0" result="BackgroundImageFix"/>
<feColorMatrix in="SourceAlpha" type="matrix" values="0 0 0 0 0 0 0 0 0 0 0 0 0 0 0 0 0 0 127 0" result="hardAlpha"/>
<feOffset dy="1.81819"/>
<feGaussianBlur stdDeviation="1.95455"/>
<feComposite in2="hardAlpha" operator="out"/>
<feColorMatrix type="matrix" values="0 0 0 0 0 0 0 0 0 0 0 0 0 0 0 0 0 0 0.23 0"/>
<feBlend mode="normal" in2="BackgroundImageFix" result="effect1_dropShadow_876_605"/>
<feBlend mode="normal" in="SourceGraphic" in2="effect1_dropShadow_876_605" result="shape"/>
</filter>
<filter id="filter14_d_876_605" x="132.4" y="171.4" width="189.2" height="45.2" filterUnits="userSpaceOnUse" color-interpolation-filters="sRGB">
<feFlood flood-opacity="0" result="BackgroundImageFix"/>
<feColorMatrix in="SourceAlpha" type="matrix" values="0 0 0 0 0 0 0 0 0 0 0 0 0 0 0 0 0 0 127 0" result="hardAlpha"/>
<feOffset dy="2"/>
<feGaussianBlur stdDeviation="1.3"/>
<feComposite in2="hardAlpha" operator="out"/>
<feColorMatrix type="matrix" values="0 0 0 0 0.0538198 0 0 0 0 0.499102 0 0 0 0 0.453665 0 0 0 0.08 0"/>
<feBlend mode="normal" in2="BackgroundImageFix" result="effect1_dropShadow_876_605"/>
<feBlend mode="normal" in="SourceGraphic" in2="effect1_dropShadow_876_605" result="shape"/>
</filter>
<filter id="filter15_d_876_605" x="165.766" y="183.423" width="122.574" height="20.2216" filterUnits="userSpaceOnUse" color-interpolation-filters="sRGB">
<feFlood flood-opacity="0" result="BackgroundImageFix"/>
<feColorMatrix in="SourceAlpha" type="matrix" values="0 0 0 0 0 0 0 0 0 0 0 0 0 0 0 0 0 0 127 0" result="hardAlpha"/>
<feOffset dy="2"/>
<feGaussianBlur stdDeviation="2.75"/>
<feComposite in2="hardAlpha" operator="out"/>
<feColorMatrix type="matrix" values="0 0 0 0 0 0 0 0 0 0 0 0 0 0 0 0 0 0 0.11 0"/>
<feBlend mode="normal" in2="BackgroundImageFix" result="effect1_dropShadow_876_605"/>
<feBlend mode="normal" in="SourceGraphic" in2="effect1_dropShadow_876_605" result="shape"/>
</filter>
<filter id="filter16_d_876_605" x="13.4" y="223.4" width="179.2" height="45.2" filterUnits="userSpaceOnUse" color-interpolation-filters="sRGB">
<feFlood flood-opacity="0" result="BackgroundImageFix"/>
<feColorMatrix in="SourceAlpha" type="matrix" values="0 0 0 0 0 0 0 0 0 0 0 0 0 0 0 0 0 0 127 0" result="hardAlpha"/>
<feOffset dy="2"/>
<feGaussianBlur stdDeviation="1.3"/>
<feComposite in2="hardAlpha" operator="out"/>
<feColorMatrix type="matrix" values="0 0 0 0 0.0538198 0 0 0 0 0.499102 0 0 0 0 0.453665 0 0 0 0.08 0"/>
<feBlend mode="normal" in2="BackgroundImageFix" result="effect1_dropShadow_876_605"/>
<feBlend mode="normal" in="SourceGraphic" in2="effect1_dropShadow_876_605" result="shape"/>
</filter>
<filter id="filter17_d_876_605" x="44.1074" y="235.423" width="117.539" height="22.6676" filterUnits="userSpaceOnUse" color-interpolation-filters="sRGB">
<feFlood flood-opacity="0" result="BackgroundImageFix"/>
<feColorMatrix in="SourceAlpha" type="matrix" values="0 0 0 0 0 0 0 0 0 0 0 0 0 0 0 0 0 0 127 0" result="hardAlpha"/>
<feOffset dy="2"/>
<feGaussianBlur stdDeviation="2.75"/>
<feComposite in2="hardAlpha" operator="out"/>
<feColorMatrix type="matrix" values="0 0 0 0 0 0 0 0 0 0 0 0 0 0 0 0 0 0 0.11 0"/>
<feBlend mode="normal" in2="BackgroundImageFix" result="effect1_dropShadow_876_605"/>
<feBlend mode="normal" in="SourceGraphic" in2="effect1_dropShadow_876_605" result="shape"/>
</filter>
<filter id="filter18_d_876_605" x="196.636" y="223.455" width="44.7273" height="44.7273" filterUnits="userSpaceOnUse" color-interpolation-filters="sRGB">
<feFlood flood-opacity="0" result="BackgroundImageFix"/>
<feColorMatrix in="SourceAlpha" type="matrix" values="0 0 0 0 0 0 0 0 0 0 0 0 0 0 0 0 0 0 127 0" result="hardAlpha"/>
<feOffset dy="1.81819"/>
<feGaussianBlur stdDeviation="1.18182"/>
<feComposite in2="hardAlpha" operator="out"/>
<feColorMatrix type="matrix" values="0 0 0 0 0.0538198 0 0 0 0 0.499102 0 0 0 0 0.453665 0 0 0 0.08 0"/>
<feBlend mode="normal" in2="BackgroundImageFix" result="effect1_dropShadow_876_605"/>
<feBlend mode="normal" in="SourceGraphic" in2="effect1_dropShadow_876_605" result="shape"/>
</filter>
<filter id="filter19_d_876_605" x="205.999" y="232.818" width="25.9998" height="26" filterUnits="userSpaceOnUse" color-interpolation-filters="sRGB">
<feFlood flood-opacity="0" result="BackgroundImageFix"/>
<feColorMatrix in="SourceAlpha" type="matrix" values="0 0 0 0 0 0 0 0 0 0 0 0 0 0 0 0 0 0 127 0" result="hardAlpha"/>
<feOffset dy="1.81819"/>
<feGaussianBlur stdDeviation="1.95455"/>
<feComposite in2="hardAlpha" operator="out"/>
<feColorMatrix type="matrix" values="0 0 0 0 0 0 0 0 0 0 0 0 0 0 0 0 0 0 0.23 0"/>
<feBlend mode="normal" in2="BackgroundImageFix" result="effect1_dropShadow_876_605"/>
<feBlend mode="normal" in="SourceGraphic" in2="effect1_dropShadow_876_605" result="shape"/>
</filter>
<linearGradient id="paint0_linear_876_605" x1="275" y1="-12.1818" x2="110.439" y2="90.3014" gradientUnits="userSpaceOnUse">
<stop stop-color="#81DAB3"/>
<stop offset="1" stop-color="#1A967F"/>
</linearGradient>
<linearGradient id="paint1_linear_876_605" x1="258.54" y1="-12.1818" x2="207.093" y2="-4.81634" gradientUnits="userSpaceOnUse">
<stop stop-color="#81DAB3"/>
<stop offset="1" stop-color="#1A967F"/>
</linearGradient>
<linearGradient id="paint2_linear_876_605" x1="145.54" y1="39.8182" x2="94.0926" y2="47.1837" gradientUnits="userSpaceOnUse">
<stop stop-color="#81DAB3"/>
<stop offset="1" stop-color="#1A967F"/>
</linearGradient>
<linearGradient id="paint3_linear_876_605" x1="408.885" y1="39.8182" x2="240.433" y2="150.754" gradientUnits="userSpaceOnUse">
<stop stop-color="#81DAB3"/>
<stop offset="1" stop-color="#1A967F"/>
</linearGradient>
<linearGradient id="paint4_linear_876_605" x1="292.862" y1="91.8182" x2="123.697" y2="204.434" gradientUnits="userSpaceOnUse">
<stop stop-color="#81DAB3"/>
<stop offset="1" stop-color="#1A967F"/>
</linearGradient>
<linearGradient id="paint5_linear_876_605" x1="270.54" y1="91.8182" x2="219.093" y2="99.1837" gradientUnits="userSpaceOnUse">
<stop stop-color="#81DAB3"/>
<stop offset="1" stop-color="#1A967F"/>
</linearGradient>
<linearGradient id="paint6_linear_876_605" x1="145.54" y1="143.818" x2="94.0926" y2="151.184" gradientUnits="userSpaceOnUse">
<stop stop-color="#81DAB3"/>
<stop offset="1" stop-color="#1A967F"/>
</linearGradient>
<linearGradient id="paint7_linear_876_605" x1="408.885" y1="143.818" x2="240.433" y2="254.754" gradientUnits="userSpaceOnUse">
<stop stop-color="#81DAB3"/>
<stop offset="1" stop-color="#1A967F"/>
</linearGradient>
<linearGradient id="paint8_linear_876_605" x1="275" y1="195.818" x2="110.439" y2="298.301" gradientUnits="userSpaceOnUse">
<stop stop-color="#81DAB3"/>
<stop offset="1" stop-color="#1A967F"/>
</linearGradient>
<linearGradient id="paint9_linear_876_605" x1="258.54" y1="195.818" x2="207.093" y2="203.184" gradientUnits="userSpaceOnUse">
<stop stop-color="#81DAB3"/>
<stop offset="1" stop-color="#1A967F"/>
</linearGradient>
</defs>
</svg>
